<?xml version="1.0" encoding="UTF-8"?>
<svg version="1.1" xmlns="http://www.w3.org/2000/svg" width="230" height="230">
<path d="M0 0 C75.9 0 151.8 0 230 0 C230 75.9 230 151.8 230 230 C154.1 230 78.2 230 0 230 C0 154.1 0 78.2 0 0 Z " fill="#FEFEFD" transform="translate(0,0)"/>
<path d="M0 0 C1.12277344 0.3403125 2.24554688 0.680625 3.40234375 1.03125 C20.39872507 6.49371349 38.24513085 19.78535624 46.96484375 35.76855469 C49.16895572 40.09932489 51.10871088 44.52511964 53 49 C53.35191406 49.79921875 53.70382813 50.5984375 54.06640625 51.421875 C60.23756613 66.3280583 58.68629756 88.47583431 52.7578125 103.0546875 C51.92883514 104.90394469 51.07432748 106.74218435 50.18359375 108.5625 C48.98538142 110.94329651 48.98538142 110.94329651 48.125 113.26953125 C38.09161272 137.6213983 22.00561895 159.90541095 6.18359375 180.77734375 C3.27635835 184.61745029 0.42344094 188.49569438 -2.42285156 192.38110352 C-16.61950515 211.75828368 -16.61950515 211.75828368 -24 219 C-42.45639535 195.42323091 -60.61762937 171.66742628 -76.140625 146.0234375 C-77.84188231 143.25710734 -79.62877162 140.57149873 -81.4375 137.875 C-86.03124355 130.72098194 -89.413462 122.94501503 -92.94946289 115.23291016 C-93.95290401 113.10010224 -95.01704474 111.01043206 -96.1015625 108.91796875 C-98.0492911 105.05373285 -99.43178373 101.13457705 -100.6875 97 C-101.00557617 96.01 -101.00557617 96.01 -101.33007812 95 C-106.81167977 77.29287039 -104.63406516 59.31194924 -96.75 42.75 C-85.14293635 20.91007052 -68.53962237 7.02596738 -45.16796875 -0.96875 C-31.12918199 -4.94303301 -13.77308077 -4.85878241 0 0 Z " fill="#F69421" transform="translate(138,7)"/>
<path d="M0 0 C0.93062256 0.00563965 1.86124512 0.0112793 2.82006836 0.01708984 C15.55729672 0.24229073 26.06685101 4.23206734 36.6875 11.3125 C37.07161275 13.922121 37.29043197 16.3183074 37.375 18.9375 C37.40916016 19.64390625 37.44332031 20.3503125 37.47851562 21.078125 C37.56101308 22.82235688 37.62593335 24.56740395 37.6875 26.3125 C39.35092837 24.64907163 39.04798097 22.5299291 39.25 20.25 C39.37568359 18.87134766 39.37568359 18.87134766 39.50390625 17.46484375 C39.56449219 16.75457031 39.62507813 16.04429688 39.6875 15.3125 C48.8199919 22.20846327 54.11479208 31.54357944 57.6875 42.3125 C58.0484375 43.36953125 58.409375 44.4265625 58.78125 45.515625 C59.86343117 50.04959092 59.94460501 54.17460854 59.875 58.8125 C59.8740332 60.03646484 59.8740332 60.03646484 59.87304688 61.28515625 C59.83857789 66.05719545 59.47817235 70.60641817 58.6875 75.3125 C58.0275 75.3125 57.3675 75.3125 56.6875 75.3125 C56.605 75.9725 56.5225 76.6325 56.4375 77.3125 C53.18136055 90.33705779 42.94599377 102.07239594 31.8125 109.13671875 C24.49271562 113.3125 24.49271562 113.3125 19.6875 113.3125 C19.6875 113.9725 19.6875 114.6325 19.6875 115.3125 C20.3475 115.3125 21.0075 115.3125 21.6875 115.3125 C21.6875 115.9725 21.6875 116.6325 21.6875 117.3125 C-11.70754536 117.90493394 -11.70754536 117.90493394 -26.3125 114.3125 C-27.3025 114.3125 -28.2925 114.3125 -29.3125 114.3125 C-29.9725 115.3025 -30.6325 116.2925 -31.3125 117.3125 C-32.3025 117.3125 -33.2925 117.3125 -34.3125 117.3125 C-34.3125 116.6525 -34.3125 115.9925 -34.3125 115.3125 C-33.6525 115.3125 -32.9925 115.3125 -32.3125 115.3125 C-31.9825 113.3325 -31.6525 111.3525 -31.3125 109.3125 C-32.034375 109.085625 -32.75625 108.85875 -33.5 108.625 C-38.756122 106.17214307 -41.47551865 102.19210792 -44.3125 97.3125 C-45.28211841 96.03436665 -46.26232107 94.76422903 -47.25 93.5 C-51.02562181 88.52814157 -53.51995963 83.22512048 -55.9375 77.5 C-57.22958792 74.24212356 -57.22958792 74.24212356 -59.3125 71.3125 C-59.53955078 68.95239258 -59.53955078 68.95239258 -59.5078125 66.20703125 C-59.50136719 65.22412109 -59.49492188 64.24121094 -59.48828125 63.22851562 C-59.47152344 62.20435547 -59.45476563 61.18019531 -59.4375 60.125 C-59.42847656 59.08923828 -59.41945312 58.05347656 -59.41015625 56.98632812 C-59.3865786 54.42815315 -59.3536703 51.87044252 -59.3125 49.3125 C-57.3325 48.8175 -57.3325 48.8175 -55.3125 48.3125 C-55.3125 47.6525 -55.3125 46.9925 -55.3125 46.3125 C-55.9725 46.3125 -56.6325 46.3125 -57.3125 46.3125 C-55.90806589 39.03161789 -54.17117297 33.23712934 -49.71484375 27.25 C-48.26104813 25.35315361 -48.26104813 25.35315361 -47.26953125 23.21484375 C-43.89993018 16.51690203 -35.8992808 11.59909222 -29.8125 7.5 C-28.46671875 6.59314453 -28.46671875 6.59314453 -27.09375 5.66796875 C-23.92640857 4.12433465 -21.79164804 4.0515639 -18.3125 4.3125 C-18.3125 3.6525 -18.3125 2.9925 -18.3125 2.3125 C-12.09865716 0.49681367 -6.46096898 -0.04088112 0 0 Z " fill="#EB9C39" transform="translate(114.3125,18.6875)"/>
<path d="M0 0 C6.63711655 5.23073869 10.30617251 11.02297413 11.42578125 19.44140625 C11.89533331 26.93556387 11.23922795 33.27280296 6.75 39.54296875 C1.30060193 45.63006234 -5.28241432 49.91651553 -13.49609375 50.875 C-20.71840202 51.14290633 -27.05659603 49.61331098 -33.0859375 45.59375 C-33.0859375 44.93375 -33.0859375 44.27375 -33.0859375 43.59375 C-33.7459375 43.59375 -34.4059375 43.59375 -35.0859375 43.59375 C-39.53407752 39.61701613 -42.14424959 35.52638383 -43.0859375 29.59375 C-43.62744732 19.51695858 -43.3932801 11.87213717 -37.0859375 3.59375 C-36.4259375 3.59375 -35.7659375 3.59375 -35.0859375 3.59375 C-35.0859375 2.93375 -35.0859375 2.27375 -35.0859375 1.59375 C-33.4765625 0.33984375 -33.4765625 0.33984375 -31.3359375 -0.96875 C-30.63984375 -1.40316406 -29.94375 -1.83757813 -29.2265625 -2.28515625 C-20.30532603 -6.95740966 -8.15505394 -5.49778917 0 0 Z " fill="#EBA046" transform="translate(131.0859375,54.40625)"/>
<path d="M0 0 C6.27666535 5.677591 9.90334049 12.37793453 10.55859375 20.86328125 C10.97818138 31.13887463 9.81490207 39.15712062 3.86328125 47.75390625 C-4.14891235 55.76609985 -12.94125624 60.5252594 -24.44921875 60.81640625 C-34.93398532 60.66352995 -42.2097789 57.19192915 -49.72265625 49.94140625 C-52.85033469 46.41853379 -55.00069116 42.80306085 -56.88671875 38.50390625 C-57.53640625 37.11171875 -57.53640625 37.11171875 -58.19921875 35.69140625 C-60.27246856 26.07906623 -59.49174483 16.40650405 -54.32421875 8.00390625 C-48.59513905 -0.07269879 -41.8231768 -5.72165099 -32.19921875 -8.18359375 C-19.51538729 -9.38018162 -10.09243432 -8.00290341 0 0 Z M-37.88671875 1.50390625 C-38.85609375 2.01953125 -39.82546875 2.53515625 -40.82421875 3.06640625 C-41.50484375 3.54078125 -42.18546875 4.01515625 -42.88671875 4.50390625 C-42.88671875 5.16390625 -42.88671875 5.82390625 -42.88671875 6.50390625 C-43.87671875 6.83390625 -44.86671875 7.16390625 -45.88671875 7.50390625 C-51.8056753 15.16373238 -51.47064708 23.12920236 -50.88671875 32.50390625 C-49.74195784 38.22771082 -46.89743602 42.39035007 -42.88671875 46.50390625 C-42.22671875 46.50390625 -41.56671875 46.50390625 -40.88671875 46.50390625 C-40.88671875 47.16390625 -40.88671875 47.82390625 -40.88671875 48.50390625 C-33.57804242 52.946435 -27.48988413 54.39173291 -18.88671875 53.50390625 C-10.36215471 51.2839677 -3.90806996 46.90096458 1.05078125 39.62890625 C4.72735236 32.41012377 4.40439377 23.20503845 2.296875 15.53125 C-0.99096393 8.11929254 -6.79437094 2.39268216 -14.13671875 -0.99609375 C-22.51345805 -2.11299232 -30.36507741 -2.727017 -37.88671875 1.50390625 Z " fill="#FDF8E9" transform="translate(138.88671875,51.49609375)"/>
<path d="M0 0 C0.93062256 0.00563965 1.86124512 0.0112793 2.82006836 0.01708984 C14.15607583 0.21751641 27.34257782 2.96757782 35.6875 11.3125 C35.91455078 13.74267578 35.91455078 13.74267578 35.8828125 16.7578125 C35.87636719 17.83417969 35.86992187 18.91054688 35.86328125 20.01953125 C35.84652344 21.14746094 35.82976562 22.27539062 35.8125 23.4375 C35.80347656 24.57316406 35.79445312 25.70882812 35.78515625 26.87890625 C35.76153098 29.69031299 35.72859013 32.50130298 35.6875 35.3125 C31.3201417 34.37826093 27.8513463 32.21848729 24.0625 29.9375 C23.31758301 29.49414307 22.57266602 29.05078613 21.80517578 28.59399414 C15.61560324 24.8990069 9.45914878 21.14849255 3.3203125 17.36987305 C-0.35975619 15.10574307 -4.0508672 12.86793502 -7.78125 10.6875 C-8.48233887 10.2757251 -9.18342773 9.8639502 -9.90576172 9.43969727 C-11.23190952 8.66316299 -12.56153556 7.89252989 -13.89501953 7.12866211 C-15.40085051 6.24440723 -16.86248956 5.2855896 -18.3125 4.3125 C-18.3125 3.6525 -18.3125 2.9925 -18.3125 2.3125 C-12.09865716 0.49681367 -6.46096898 -0.04088112 0 0 Z " fill="#FEFCF8" transform="translate(114.3125,18.6875)"/>
<path d="M0 0 C11.00105232 8.8529632 18.32876339 21.94778559 20.28735352 36.07226562 C21.42019542 48.97058426 21.42019542 48.97058426 18.59765625 53.00390625 C16.45737967 54.3300899 14.36511354 55.13660442 12 56 C10.03039974 57.08394108 8.07220144 58.18881854 6.125 59.3125 C1.26448363 62 1.26448363 62 -1 62 C-1.13342894 41.30414535 -0.84518131 20.67996822 0 0 Z " fill="#FDFCF5" transform="translate(154,34)"/>
<path d="M0 0 C0.22434738 20.34082888 -0.44099388 40.66912575 -1 61 C-9.6275742 57.00300664 -14.5676374 47.31099486 -17.8671875 38.75 C-21.04306698 29.7970445 -22.80536365 19.39633712 -21 10 C-18.14416418 6.82939269 -14.92426795 5.53509771 -11 4 C-9.5151058 3.2191291 -8.03523871 2.42856134 -6.5625 1.625 C-3 0 -3 0 0 0 Z " fill="#FEFDFA" transform="translate(77,59)"/>
<path d="M0 0 C0.94668601 2.55013543 1.06945203 3.77681299 0.25 6.41015625 C-6.72327416 21.20657237 -14.39599988 32.12671971 -29 40 C-29.90878906 40.50660156 -30.81757813 41.01320312 -31.75390625 41.53515625 C-36.95292262 42.2796604 -40.1594471 39.44881534 -44.375 36.625 C-45.20644531 36.09132812 -46.03789063 35.55765625 -46.89453125 35.0078125 C-48.94228395 33.68971881 -50.97581637 32.35389893 -53 31 C-51.85158277 27.55474832 -51.42695328 27.38079853 -48.38671875 25.73046875 C-47.26571777 25.11437744 -47.26571777 25.11437744 -46.12207031 24.48583984 C-45.31866211 24.0573877 -44.51525391 23.62893555 -43.6875 23.1875 C-42.86733398 22.74100098 -42.04716797 22.29450195 -41.20214844 21.83447266 C-35.83986589 18.93227144 -30.41514456 16.17795956 -24.9375 13.5 C-20.8623423 11.41906841 -16.91757627 9.13109478 -12.95947266 6.83740234 C-8.71191726 4.38270071 -4.42155513 2.12234646 0 0 Z " fill="#FEFBF3" transform="translate(171,90)"/>
<path d="M0 0 C3.1882888 1.54227733 6.03680919 3.47672466 8.9375 5.5 C9.71673828 6.02464844 10.49597656 6.54929687 11.29882812 7.08984375 C13.20943818 8.3792125 15.10875346 9.68246662 17 11 C15.42658193 14.14683614 12.25020277 14.98031975 9.1875 16.4375 C2.58378324 19.65502504 -3.886265 23.06650642 -10.3125 26.625 C-11.16448975 27.09599121 -12.01647949 27.56698242 -12.89428711 28.05224609 C-16.43600912 30.0139319 -19.97294792 31.98385762 -23.50390625 33.96484375 C-27.92646348 36.42583138 -32.07720554 38.66951501 -37 40 C-36.19432549 32.10438984 -33.46002896 26.47423558 -29 20 C-28.690625 19.319375 -28.38125 18.63875 -28.0625 17.9375 C-24.57508218 11.57809103 -17.367408 6.88595638 -11.5625 2.6875 C-10.86253906 2.17574219 -10.16257812 1.66398437 -9.44140625 1.13671875 C-5.94779117 -0.48990843 -3.83715206 -0.52035913 0 0 Z " fill="#FDFBF4" transform="translate(95,24)"/>
<path d="M0 0 C3.3652376 1.30450611 6.17628138 2.66459443 9.125 4.75 C12.35584531 6.95694852 15.60473329 8.91972348 19.0625 10.75 C24.71901515 13.76253498 30.11353211 17.13570521 35.51782227 20.57324219 C38.61679133 22.53902042 41.65886198 24.46188019 45 26 C45 26.66 45 27.32 45 28 C45.5775 28.12375 46.155 28.2475 46.75 28.375 C49.02335767 29.00648824 50.9253529 29.88858191 53 31 C53 31.66 53 32.32 53 33 C39.84081014 36.78572781 24.55292964 36.81434224 12 31 C2.92520776 25.92520776 2.92520776 25.92520776 0 23 C-0.08713831 21.29227642 -0.10700007 19.58101351 -0.09765625 17.87109375 C-0.09443359 16.83662109 -0.09121094 15.80214844 -0.08789062 14.73632812 C-0.07951172 13.64771484 -0.07113281 12.55910156 -0.0625 11.4375 C-0.05798828 10.34501953 -0.05347656 9.25253906 -0.04882812 8.12695312 C-0.03699826 5.41791505 -0.02051543 2.70898401 0 0 Z " fill="#FDFBF5" transform="translate(79,101)"/>
<path d="M0 0 C0.99 0 1.98 0 3 0 C2.99476318 0.6705542 2.98952637 1.3411084 2.98413086 2.03198242 C2.96328395 5.083812 2.95031531 8.13562656 2.9375 11.1875 C2.92912109 12.24259766 2.92074219 13.29769531 2.91210938 14.38476562 C2.90888672 15.40634766 2.90566406 16.42792969 2.90234375 17.48046875 C2.89710693 18.41785889 2.89187012 19.35524902 2.88647461 20.32104492 C2.99917343 22.98049477 3.40623351 25.40920573 4 28 C4.66 28 5.32 28 6 28 C6.66 28.66 7.32 29.32 8 30 C8.57427734 29.32517578 8.57427734 29.32517578 9.16015625 28.63671875 C11.44144032 26.60729619 13.56498846 25.82976664 16.4375 24.8125 C17.38496094 24.46832031 18.33242187 24.12414062 19.30859375 23.76953125 C22 23 22 23 26 23 C26.68897156 31.26765866 24.52006379 36.21990432 20 43 C19.34 43 18.68 43 18 43 C16.68 40.69 15.36 38.38 14 36 C12.02 36.495 12.02 36.495 10 37 C9.34 35.35 8.68 33.7 8 32 C7.01 32.495 7.01 32.495 6 33 C7.21423099 35.75961588 8.73889498 37.99798883 10.5625 40.375 C12.86945155 43.5165252 13.71141595 46.05601802 14 50 C6.38006421 53.38663813 -0.83977349 54.1760604 -9 52 C-8.67 51.34 -8.34 50.68 -8 50 C-8.99 49.01 -9.98 48.02 -11 47 C-10.27683594 46.22076172 -10.27683594 46.22076172 -9.5390625 45.42578125 C-6.18159979 41.71886834 -3.72486281 38.74337274 -2 34 C-0.515 33.505 -0.515 33.505 1 33 C1 31.68 1 30.36 1 29 C0.34 29 -0.32 29 -1 29 C-1 29.99 -1 30.98 -1 32 C-2.30292673 33.36306181 -3.64183952 34.69196496 -5 36 C-6.83977199 38.61128928 -8.5778462 41.2736516 -10.31640625 43.953125 C-10.87199219 44.62859375 -11.42757812 45.3040625 -12 46 C-12.99 46 -13.98 46 -15 46 C-13.67283941 42.18608902 -12.00985854 39.60397251 -9.375 36.5625 C-6.91309693 33.51442953 -6.05098888 32.4151952 -5.5625 28.4375 C-5.706875 27.633125 -5.85125 26.82875 -6 26 C-11.57765673 23.05966587 -16.85326729 20.46987086 -23 19 C-23 18.01 -23 17.02 -23 16 C-19.28233091 16.64890224 -15.90681264 17.67678645 -12.375 19 C-9.59097797 20.03733424 -6.81879314 21.06040229 -4 22 C-3.34 22.66 -2.68 23.32 -2 24 C-1.01356362 18.87716234 -0.69032947 13.82251071 -0.4375 8.625 C-0.39431641 7.79355469 -0.35113281 6.96210937 -0.30664062 6.10546875 C-0.20138195 4.07046772 -0.10026928 2.03525297 0 0 Z " fill="#EB9A3A" transform="translate(114,52)"/>
<path d="M0 0 C6.05063846 -0.36750082 9.16108468 0.11663607 14.375 3.5 C15.66907559 4.31931888 16.9633646 5.13830071 18.2578125 5.95703125 C18.9890332 6.42834473 19.72025391 6.8996582 20.47363281 7.38525391 C25.12402842 10.35758832 29.8321373 13.2373793 34.53302002 16.12890625 C36.20736112 17.16121126 37.87790422 18.19966843 39.54833984 19.23828125 C46.25516051 23.39123744 53.04130075 27.2836847 60 31 C60 23.08 60 15.16 60 7 C60.33 7 60.66 7 61 7 C61.495 14.425 61.495 14.425 62 22 C62.99 21.505 62.99 21.505 64 21 C64 38.49 64 55.98 64 74 C63.01 74 62.02 74 61 74 C61 71.03 61 68.06 61 65 C60.34 65 59.68 65 59 65 C59 65.66 59 66.32 59 67 C58.34 66.67 57.68 66.34 57 66 C57.495 64.515 57.495 64.515 58 63 C59.00812055 50.55800586 58.37599825 40.99183342 50.2890625 30.85546875 C44.33638916 24.45836504 38.08952836 21.27398459 29.30859375 20.87890625 C17.30370131 20.61826363 10.15136891 22.06507072 1 30 C0.01 30.66 -0.98 31.32 -2 32 C-2 31.01 -2 30.02 -2 29 C-2.928125 29.309375 -2.928125 29.309375 -3.875 29.625 C-4.57625 29.74875 -5.2775 29.8725 -6 30 C-6.66 29.34 -7.32 28.68 -8 28 C1.60823038 22.87712835 11.22634391 17.80208536 21 13 C17.61676822 10.22354348 14.17377853 7.6911684 10.5 5.3125 C9.5821875 4.71050781 8.664375 4.10851562 7.71875 3.48828125 C5.06763569 2.03702471 2.97499763 1.40421163 0 1 C0 0.67 0 0.34 0 0 Z " fill="#E99833" transform="translate(90,23)"/>
<path d="M0 0 C0.33 0 0.66 0 1 0 C1.22366479 2.68699992 1.42927009 5.37343797 1.625 8.0625 C1.68945312 8.81466797 1.75390625 9.56683594 1.8203125 10.34179688 C2.17033804 15.39529063 1.66655961 19.21023136 0 24 C-0.66 23.67 -1.32 23.34 -2 23 C-2 22.34 -2 21.68 -2 21 C-2.92619141 20.85304688 -2.92619141 20.85304688 -3.87109375 20.703125 C-10.06564802 19.60941374 -15.37341119 17.79970361 -21 15 C-21 15.99 -21 16.98 -21 18 C-19.72125 18.2475 -18.4425 18.495 -17.125 18.75 C-11.830253 19.91164561 -6.96810741 21.86340266 -2 24 C-2.40721631 29.78101719 -3.89110376 32.81851054 -7.5 37.3125 C-10.52933932 40.97737017 -10.52933932 40.97737017 -13 45 C-12.01 45 -11.02 45 -10 45 C-9.7421875 44.27425781 -9.484375 43.54851562 -9.21875 42.80078125 C-7.94757501 39.87952333 -6.45983598 37.69127351 -4.5 35.1875 C-3.8915625 34.39730469 -3.283125 33.60710937 -2.65625 32.79296875 C-2.1096875 32.20128906 -1.563125 31.60960938 -1 31 C-0.34 31 0.32 31 1 31 C1 30.01 1 29.02 1 28 C1.66 28 2.32 28 3 28 C3.33 29.65 3.66 31.3 4 33 C3.38125 33.061875 2.7625 33.12375 2.125 33.1875 C1.42375 33.455625 0.7225 33.72375 0 34 C-0.70105843 35.65249487 -1.35800351 37.32367583 -2 39 C-3.89436019 41.7498777 -5.93187515 44.37907448 -8 47 C-7.01 47.99 -6.02 48.98 -5 50 C-8.73487777 49.5020163 -10.81237635 49.12508244 -14 47 C-14 46.34 -14 45.68 -14 45 C-14.66 45 -15.32 45 -16 45 C-21.55183118 40.03654224 -23.74191648 35.05894983 -24.21484375 27.62109375 C-24.47124833 17.78541389 -24.47124833 17.78541389 -21 12 C-14.4 13.65 -7.8 15.3 -1 17 C-1.03950724 12.15350804 -1.03950724 12.15350804 -1.09008789 7.30712891 C-1.11111111 2.22222222 -1.11111111 2.22222222 0 0 Z " fill="#EBA148" transform="translate(112,53)"/>
<path d="M0 0 C0.99 0 1.98 0 3 0 C3 8.91 3 17.82 3 27 C-1 28 -1 28 -3 27 C-3.33 27.66 -3.66 28.32 -4 29 C-3.34 29 -2.68 29 -2 29 C-2.60409423 33.2078288 -5.0084586 36.34247995 -7.375 39.75 C-7.77460937 40.35199219 -8.17421875 40.95398438 -8.5859375 41.57421875 C-9.64340787 43.1082465 -10.8154096 44.56186569 -12 46 C-12.99 46 -13.98 46 -15 46 C-13.67283941 42.18608902 -12.00985854 39.60397251 -9.375 36.5625 C-6.91309693 33.51442953 -6.05098888 32.4151952 -5.5625 28.4375 C-5.706875 27.633125 -5.85125 26.82875 -6 26 C-11.57765673 23.05966587 -16.85326729 20.46987086 -23 19 C-23 18.01 -23 17.02 -23 16 C-19.28233091 16.64890224 -15.90681264 17.67678645 -12.375 19 C-9.59097797 20.03733424 -6.81879314 21.06040229 -4 22 C-3.34 22.66 -2.68 23.32 -2 24 C-1.01356362 18.87716234 -0.69032947 13.82251071 -0.4375 8.625 C-0.39431641 7.79355469 -0.35113281 6.96210937 -0.30664062 6.10546875 C-0.20138195 4.07046772 -0.10026928 2.03525297 0 0 Z " fill="#F8BC68" transform="translate(114,52)"/>
<path d="M0 0 C4.96916636 0.51405169 9.29026351 1.23384882 14 3 C13.59278369 8.78101719 12.10889624 11.81851054 8.5 16.3125 C5.47066068 19.97737017 5.47066068 19.97737017 3 24 C3.99 24 4.98 24 6 24 C6.2578125 23.27425781 6.515625 22.54851562 6.78125 21.80078125 C8.05242499 18.87952333 9.54016402 16.69127351 11.5 14.1875 C12.41265625 13.00220703 12.41265625 13.00220703 13.34375 11.79296875 C13.8903125 11.20128906 14.436875 10.60960938 15 10 C15.66 10 16.32 10 17 10 C17 9.01 17 8.02 17 7 C17.66 7 18.32 7 19 7 C19.33 8.65 19.66 10.3 20 12 C19.38125 12.061875 18.7625 12.12375 18.125 12.1875 C17.42375 12.455625 16.7225 12.72375 16 13 C15.29894157 14.65249487 14.64199649 16.32367583 14 18 C12.10563981 20.7498777 10.06812485 23.37907448 8 26 C8.99 26.99 9.98 27.98 11 29 C7.26512223 28.5020163 5.18762365 28.12508244 2 26 C2 25.34 2 24.68 2 24 C1.34 24 0.68 24 0 24 C-4 19.52941176 -4 19.52941176 -4 17 C-3.34 17 -2.68 17 -2 17 C-1.67 17.66 -1.34 18.32 -1 19 C-0.01 19.33 0.98 19.66 2 20 C2.226875 19.34 2.45375 18.68 2.6875 18 C4.13487324 14.6917183 5.92695493 11.79882069 7.87890625 8.76953125 C9.04331625 6.9974569 9.04331625 6.9974569 10 5 C9.0925 4.87625 8.185 4.7525 7.25 4.625 C4.41029677 4.07890323 2.47409409 3.42736197 0 2 C0 1.34 0 0.68 0 0 Z " fill="#E69D41" transform="translate(96,74)"/>
<path d="M0 0 C6.78651685 1.13108614 6.78651685 1.13108614 10.1875 3.8125 C10.84105469 4.31394531 11.49460938 4.81539062 12.16796875 5.33203125 C14.11809555 7.10751983 15.63585716 8.73827784 17 11 C16.67 11.99 16.34 12.98 16 14 C13.41796875 14.94921875 13.41796875 14.94921875 10.1875 15.6875 C8.60001953 16.06455078 8.60001953 16.06455078 6.98046875 16.44921875 C4 17 4 17 0 17 C0 11.39 0 5.78 0 0 Z " fill="#FEF7EB" transform="translate(120,53)"/>
<path d="M0 0 C5.36095277 1.58921525 10.70843973 3.18972938 16 5 C14.66140851 8.60390017 13.03586776 11.74261158 11 15 C10.1646875 16.3921875 10.1646875 16.3921875 9.3125 17.8125 C8.879375 18.534375 8.44625 19.25625 8 20 C6.140625 19.74609375 6.140625 19.74609375 4 19 C-0.22856266 13.27055861 -0.51520684 6.85511324 0 0 Z " fill="#FDF8E6" transform="translate(90,74)"/>
<path d="M0 0 C0.68897156 8.26765866 -1.47993621 13.21990432 -6 20 C-6.66 20 -7.32 20 -8 20 C-9.50312477 17.92171507 -10.85724824 15.87208449 -12.1875 13.6875 C-12.56841797 13.09259766 -12.94933594 12.49769531 -13.34179688 11.88476562 C-14.31362948 10.30619906 -15.16521849 8.65513469 -16 7 C-15.67 6.01 -15.34 5.02 -15 4 C-12.63671875 2.83203125 -12.63671875 2.83203125 -9.6875 1.8125 C-8.23923828 1.29623047 -8.23923828 1.29623047 -6.76171875 0.76953125 C-4 0 -4 0 0 0 Z " fill="#FEF7EB" transform="translate(140,75)"/>
<path d="M0 0 C0.02685095 2.47923801 0.04676547 4.9581884 0.0625 7.4375 C0.07087891 8.14455078 0.07925781 8.85160156 0.08789062 9.58007812 C0.09653588 11.38693559 0.05220011 13.19387603 0 15 C-1 16 -1 16 -4.0625 16.25 C-8.66649932 15.95768258 -11.76939541 14.7813072 -16 13 C-15.5132738 8.72270913 -14.42203651 6.97941484 -11.125 4.25 C-10.42632812 3.65703125 -9.72765625 3.0640625 -9.0078125 2.453125 C-5.86455353 0.17823718 -3.90876537 0 0 0 Z " fill="#FDF9ED" transform="translate(110,53)"/>
<path d="M0 0 C3.82705914 3.04425159 7.25991219 5.88986829 10 10 C10 11.32 10 12.64 10 14 C6.6838381 15.1053873 4.11463365 15.16753642 0.625 15.1875 C-0.49648437 15.20167969 -1.61796875 15.21585938 -2.7734375 15.23046875 C-5.94884842 15.00365368 -8.14234718 14.35390668 -11 13 C-7.61227103 8.30840284 -4.21814817 3.9700218 0 0 Z " fill="#FEFAEC" transform="translate(114,87)"/>
<path d="M0 0 C0.33 0 0.66 0 1 0 C1.33 4.95 1.66 9.9 2 15 C2.66 14.67 3.32 14.34 4 14 C4 31.49 4 48.98 4 67 C3.01 67 2.02 67 1 67 C1 64.03 1 61.06 1 58 C0.34 58 -0.32 58 -1 58 C-1 58.66 -1 59.32 -1 60 C-1.66 59.67 -2.32 59.34 -3 59 C-2.67 58.01 -2.34 57.02 -2 56 C-1.77439324 53.60745424 -1.59151405 51.21071877 -1.4375 48.8125 C-1.35371094 47.54019531 -1.26992187 46.26789063 -1.18359375 44.95703125 C-1.09271484 43.49330078 -1.09271484 43.49330078 -1 42 C-0.67 42 -0.34 42 0 42 C0.33 45.96 0.66 49.92 1 54 C1.33 44.76 1.66 35.52 2 26 C0.68 26.33 -0.64 26.66 -2 27 C-2 26.01 -2 25.02 -2 24 C-1.34 24 -0.68 24 0 24 C0 16.08 0 8.16 0 0 Z " fill="#F1AF5F" transform="translate(150,30)"/>
<path d="M0 0 C1.32 0.33 2.64 0.66 4 1 C3.53851563 1.37125 3.07703125 1.7425 2.6015625 2.125 C-2.26684806 7.82460261 -2.34181035 18.51769461 -3.1796875 25.7578125 C-2.95272185 28.58994907 -1.99183467 29.09072842 0 31 C0 32.32 0 33.64 0 35 C-1.32 34.67 -2.64 34.34 -4 34 C-4 33.01 -4 32.02 -4 31 C-4.66 31 -5.32 31 -6 31 C-8.8429358 25.49181189 -8.82775415 20.07634404 -7.2421875 14.18359375 C-5.4300932 8.93993504 -3.34792186 4.4240396 0 0 Z " fill="#FDFCF9" transform="translate(89,57)"/>
<path d="M0 0 C2.97526665 2.55022856 4.50122302 5.40293526 6 9 C5.67 9.99 5.34 10.98 5 12 C1.35224614 8.11690718 0.41474367 5.28798182 0 0 Z M-7 2 C-5.68 2.66 -4.36 3.32 -3 4 C-3 4.66 -3 5.32 -3 6 C-1.68 6.66 -0.36 7.32 1 8 C1.02909769 12.06248489 1.04683174 16.12494286 1.0625 20.1875 C1.07087891 21.33798828 1.07925781 22.48847656 1.08789062 23.67382812 C1.09111328 24.78564453 1.09433594 25.89746094 1.09765625 27.04296875 C1.10289307 28.06414795 1.10812988 29.08532715 1.11352539 30.13745117 C1.00519467 32.86901616 0.61706868 35.34169374 0 38 C0.66 38 1.32 38 2 38 C2.33 37.01 2.66 36.02 3 35 C3.33 35.99 3.66 36.98 4 38 C2.78515625 40.04296875 2.78515625 40.04296875 1.0625 42.1875 C0.21365234 43.26064453 0.21365234 43.26064453 -0.65234375 44.35546875 C-1.09707031 44.89816406 -1.54179687 45.44085938 -2 46 C-2.5534764 43.92446352 -3 42.15634036 -3 40 C-4.65 40.66 -6.3 41.32 -8 42 C-7.4946875 41.319375 -6.989375 40.63875 -6.46875 39.9375 C-0.64511543 31.24826746 0.5516652 24.25999028 -1 14 C-2.27304702 10.34729972 -3.88701861 7.22835846 -6 4 C-6.33 3.34 -6.66 2.68 -7 2 Z " fill="#FEF3D9" transform="translate(142,56)"/>
<path d="M0 0 C0.33 1.32 0.66 2.64 1 4 C0.01 4.495 0.01 4.495 -1 5 C-1.33 5.99 -1.66 6.98 -2 8 C-2.66 8 -3.32 8 -4 8 C-5.01687046 12.77762638 -5.01687046 12.77762638 -4.0625 17.4375 C-3.711875 17.953125 -3.36125 18.46875 -3 19 C-3.99 19.33 -4.98 19.66 -6 20 C-6 19.34 -6 18.68 -6 18 C-8.87482008 19.43741004 -9.0021676 21.20002354 -10.0625 24.1875 C-10.40410156 25.12980469 -10.74570312 26.07210937 -11.09765625 27.04296875 C-12.84080276 32.75535796 -13.23572259 38.45015064 -13.5625 44.375 C-13.60568359 45.11105469 -13.64886719 45.84710938 -13.69335938 46.60546875 C-13.79843799 48.40348068 -13.89962093 50.20171958 -14 52 C-13.34 52 -12.68 52 -12 52 C-12 52.99 -12 53.98 -12 55 C-12.66 55 -13.32 55 -14 55 C-14 56.65 -14 58.3 -14 60 C-14.33 60 -14.66 60 -15 60 C-18.46110859 39.23334844 -14.25452111 19.87393896 -2.0625 2.625 C-1.381875 1.75875 -0.70125 0.8925 0 0 Z " fill="#EBA045" transform="translate(50,36)"/>
<path d="M0 0 C0.66 0 1.32 0 2 0 C2.268125 0.639375 2.53625 1.27875 2.8125 1.9375 C3.88667752 4.33131686 3.88667752 4.33131686 7 5 C7.33 4.34 7.66 3.68 8 3 C12 8.75 12 8.75 12 11 C12.66 11 13.32 11 14 11 C14.268125 10.29875 14.53625 9.5975 14.8125 8.875 C16.0681449 5.8350176 17.50235123 2.9272226 19 0 C19.99 0 20.98 0 22 0 C20.24738015 7.01047941 16.06598267 13.03378056 10 17 C9.34 17 8.68 17 8 17 C7.443125 15.80375 6.88625 14.6075 6.3125 13.375 C4.87522475 10.453919 3.36613597 8.10347341 1.1875 5.6875 C0.465625 4.800625 -0.25625 3.91375 -1 3 C-0.67 2.01 -0.34 1.02 0 0 Z " fill="#E6A048" transform="translate(120,84)"/>
<path d="M0 0 C0.515625 0.66 1.03125 1.32 1.5625 2 C2.366875 2.99 3.17125 3.98 4 5 C4.48597656 5.639375 4.97195312 6.27875 5.47265625 6.9375 C10.53543225 13.25699344 16.92266947 17.51890159 25 19 C31.04145544 19.28608563 37.072154 19.31729911 43 18 C42.34 18.99 41.68 19.98 41 21 C39.15234375 21.34057617 39.15234375 21.34057617 36.9375 21.29296875 C36.14085937 21.28330078 35.34421875 21.27363281 34.5234375 21.26367188 C33.69070312 21.23853516 32.85796875 21.21339844 32 21.1875 C30.75089844 21.16719727 30.75089844 21.16719727 29.4765625 21.14648438 C27.93346448 21.12026669 26.3904506 21.0879119 24.84765625 21.04760742 C23.56543156 21.01456913 22.28265025 21 21 21 C20.34 21.66 19.68 22.32 19 23 C12.95830655 19.39726886 6.95273258 15.74801681 1 12 C1.66 11.67 2.32 11.34 3 11 C3 9.35 3 7.7 3 6 C2.34 6 1.68 6 1 6 C0.67 4.02 0.34 2.04 0 0 Z " fill="#E9A147" transform="translate(83,92)"/>
<path d="M0 0 C1.75570312 0.01353516 1.75570312 0.01353516 3.546875 0.02734375 C4.43890625 0.03894531 5.3309375 0.05054688 6.25 0.0625 C6.25 0.3925 6.25 0.7225 6.25 1.0625 C3.94 1.3925 1.63 1.7225 -0.75 2.0625 C-0.75 7.3425 -0.75 12.6225 -0.75 18.0625 C-1.08 18.0625 -1.41 18.0625 -1.75 18.0625 C-2.245 11.6275 -2.245 11.6275 -2.75 5.0625 C-3.08 10.0125 -3.41 14.9625 -3.75 20.0625 C-5.4 20.0625 -7.05 20.0625 -8.75 20.0625 C-7.76 19.4025 -6.77 18.7425 -5.75 18.0625 C-5.36588725 15.452879 -5.14706803 13.0566926 -5.0625 10.4375 C-5.02833984 9.73109375 -4.99417969 9.0246875 -4.95898438 8.296875 C-4.87648692 6.55264312 -4.81156665 4.80759605 -4.75 3.0625 C-10.70458013 4.94289372 -15.64519089 7.19621905 -19.75 12.0625 C-20.46899833 14.16799881 -20.46899833 14.16799881 -20.75 16.0625 C-22.4 16.3925 -24.05 16.7225 -25.75 17.0625 C-24.25079488 13.94876628 -22.66847864 10.94021795 -20.75 8.0625 C-20.09 8.0625 -19.43 8.0625 -18.75 8.0625 C-18.75 7.4025 -18.75 6.7425 -18.75 6.0625 C-17.140625 4.80859375 -17.140625 4.80859375 -15 3.5 C-14.30390625 3.06558594 -13.6078125 2.63117187 -12.890625 2.18359375 C-8.58853948 -0.06950579 -4.82631304 -0.04826313 0 0 Z " fill="#EFAD5A" transform="translate(114.75,49.9375)"/>
<path d="M0 0 C0.66 0.33 1.32 0.66 2 1 C1.67 1.66 1.34 2.32 1 3 C0.01 3 -0.98 3 -2 3 C-2 4.65 -2 6.3 -2 8 C-3.31291016 8.15662109 -3.31291016 8.15662109 -4.65234375 8.31640625 C-8.14989078 9.0306078 -10.49088602 10.15045858 -13.5625 11.9375 C-17.05546377 13.95400533 -20.21389836 15.48555935 -24 17 C-23.34 24.92 -22.68 32.84 -22 41 C-25 38 -25 38 -25.34057617 35.63989258 C-25.32486572 34.73392334 -25.30915527 33.8279541 -25.29296875 32.89453125 C-25.28330078 31.91162109 -25.27363281 30.92871094 -25.26367188 29.91601562 C-25.23853516 28.89185547 -25.21339844 27.86769531 -25.1875 26.8125 C-25.16719727 25.25885742 -25.16719727 25.25885742 -25.14648438 23.67382812 C-25.11111389 21.11536301 -25.06175544 18.5579422 -25 16 C-23.68 15.67 -22.36 15.34 -21 15 C-21 14.34 -21 13.68 -21 13 C-21.66 13 -22.32 13 -23 13 C-22.67 12.34 -22.34 11.68 -22 11 C-21.21625 10.7525 -20.4325 10.505 -19.625 10.25 C-13.45579851 8.12268914 -7.75913564 4.78252072 -2.28515625 1.24609375 C-1.53105469 0.83488281 -0.77695313 0.42367187 0 0 Z " fill="#EA9E45" transform="translate(80,52)"/>
<path d="M0 0 C2.4375 0.375 2.4375 0.375 5 1 C5.33 1.66 5.66 2.32 6 3 C6.99 3 7.98 3 9 3 C9 12.24 9 21.48 9 31 C8.34 31.33 7.68 31.66 7 32 C6.96132812 30.83597656 6.96132812 30.83597656 6.921875 29.6484375 C6.37432201 19.22004195 4.01040385 9.63935635 0 0 Z " fill="#E99027" transform="translate(143,53)"/>
<path d="M0 0 C0.66 0.33 1.32 0.66 2 1 C1.01 1.33 0.02 1.66 -1 2 C-1 2.66 -1 3.32 -1 4 C-0.46890625 3.83628906 0.0621875 3.67257813 0.609375 3.50390625 C3.53876764 2.88643623 6.25822936 2.90498075 9.25 2.9375 C10.86648437 2.95103516 10.86648437 2.95103516 12.515625 2.96484375 C13.33546875 2.97644531 14.1553125 2.98804688 15 3 C15 3.33 15 3.66 15 4 C13.38931641 4.16435547 13.38931641 4.16435547 11.74609375 4.33203125 C10.3098322 4.49161587 8.87363767 4.65180442 7.4375 4.8125 C6.73302734 4.88275391 6.02855469 4.95300781 5.30273438 5.02539062 C-1.63084836 5.82419048 -7.24596002 7.86027862 -12.4375 12.6875 C-13.11683594 13.31011719 -13.79617187 13.93273438 -14.49609375 14.57421875 C-14.99238281 15.04472656 -15.48867187 15.51523437 -16 16 C-16.33 15.01 -16.66 14.02 -17 13 C-17.61875 13.20625 -18.2375 13.4125 -18.875 13.625 C-19.57625 13.74875 -20.2775 13.8725 -21 14 C-21.66 13.34 -22.32 12.68 -23 12 C-20.29212552 10.56163015 -17.58371839 9.12427908 -14.875 7.6875 C-14.11445312 7.28337891 -13.35390625 6.87925781 -12.5703125 6.46289062 C-11.07560098 5.67043581 -9.57921077 4.88113818 -8.08105469 4.09521484 C-6.23715636 3.12481035 -4.40296913 2.13600266 -2.5703125 1.14453125 C-1.72210938 0.76683594 -0.87390625 0.38914063 0 0 Z " fill="#EB9C3E" transform="translate(105,39)"/>
<path d="M0 0 C0.33 0 0.66 0 1 0 C1.15546917 3.26485262 1.10225758 5.71240055 0 8.8125 C-1.76514372 14.4388956 -1.47014699 20.30318042 0 26 C0.66 26 1.32 26 2 26 C2.33 26.99 2.66 27.98 3 29 C3.99 29.33 4.98 29.66 6 30 C6.33 28.68 6.66 27.36 7 26 C7.433125 26.763125 7.86625 27.52625 8.3125 28.3125 C9.83752358 30.96286253 9.83752358 30.96286253 11.6875 32.6875 C12.120625 33.120625 12.55375 33.55375 13 34 C13 34.66 13 35.32 13 36 C11.68 36.66 10.36 37.32 9 38 C8.01 36.02 7.02 34.04 6 32 C6.33 34.31 6.66 36.62 7 39 C0.77371148 34.01896918 -2.43391896 26.6846094 -3.3828125 18.83203125 C-3.49810575 12.33443291 -2.94710514 5.89421027 0 0 Z " fill="#FDF2D8" transform="translate(83,62)"/>
<path d="M0 0 C1.98 0 3.96 0 6 0 C5.40440894 4.86872054 3.27522585 8.59328841 0.9375 12.8125 C0.56044922 13.50537109 0.18339844 14.19824219 -0.20507812 14.91210938 C-1.13083852 16.61128985 -2.06462312 18.30609425 -3 20 C-3.33 20 -3.66 20 -4 20 C-4 14.39 -4 8.78 -4 3 C-3.01 3 -2.02 3 -1 3 C-0.67 2.01 -0.34 1.02 0 0 Z " fill="#F09525" transform="translate(82,52)"/>
<path d="M0 0 C0.79664062 0.15339844 1.59328125 0.30679688 2.4140625 0.46484375 C6.73447415 1.10961107 11.01537398 1.35042888 15.375 1.5625 C16.62216797 1.62727539 16.62216797 1.62727539 17.89453125 1.69335938 C19.92953228 1.79861805 21.96474703 1.89973072 24 2 C24 2.66 24 3.32 24 4 C22.68 3.67 21.36 3.34 20 3 C20 3.99 20 4.98 20 6 C18.35 6 16.7 6 15 6 C15.33 7.32 15.66 8.64 16 10 C8.96076094 8.86869372 4.88785989 6.18685132 0 1 C0 0.67 0 0.34 0 0 Z " fill="#F09729" transform="translate(100,111)"/>
<path d="M0 0 C0.99 0.33 1.98 0.66 3 1 C2.34 1 1.68 1 1 1 C1 6.61 1 12.22 1 18 C4.96 17.505 4.96 17.505 9 17 C9 17.33 9 17.66 9 18 C12.63 17.67 16.26 17.34 20 17 C20 17.99 20 18.98 20 20 C17.39741676 20.83857688 14.79314353 21.67103344 12.1875 22.5 C11.08051758 22.85771484 11.08051758 22.85771484 9.95117188 23.22265625 C6.86744804 24.19940136 4.25504191 25 1 25 C1 23.68 1 22.36 1 21 C1.66 21 2.32 21 3 21 C3 20.34 3 19.68 3 19 C1.68 18.67 0.36 18.34 -1 18 C-0.505 9.09 -0.505 9.09 0 0 Z " fill="#F0A853" transform="translate(119,52)"/>
<path d="M0 0 C0.33 0 0.66 0 1 0 C1 2.31 1 4.62 1 7 C1.66 7 2.32 7 3 7 C3 9.64 3 12.28 3 15 C3.99 15 4.98 15 6 15 C6 15.66 6 16.32 6 17 C6.66 17 7.32 17 8 17 C8 18.65 8 20.3 8 22 C3.25 21.125 3.25 21.125 1 20 C1 20.66 1 21.32 1 22 C0.34 22 -0.32 22 -1 22 C-1.02887814 18.52085059 -1.04675687 15.04173169 -1.0625 11.5625 C-1.07087891 10.56927734 -1.07925781 9.57605469 -1.08789062 8.55273438 C-1.09111328 7.60849609 -1.09433594 6.66425781 -1.09765625 5.69140625 C-1.10289307 4.81685791 -1.10812988 3.94230957 -1.11352539 3.04125977 C-1 1 -1 1 0 0 Z " fill="#EE961D" transform="translate(78,81)"/>
<path d="M0 0 C2.64 0 5.28 0 8 0 C8.33 0.66 8.66 1.32 9 2 C6.03 1.505 6.03 1.505 3 1 C3 6.94 3 12.88 3 19 C3.99 19.33 4.98 19.66 6 20 C6 20.66 6 21.32 6 22 C5.34 22 4.68 22 4 22 C4 23.32 4 24.64 4 26 C5.32 25.67 6.64 25.34 8 25 C7.67 26.98 7.34 28.96 7 31 C6.01 31 5.02 31 4 31 C4 30.34 4 29.68 4 29 C3.34 29 2.68 29 2 29 C0.27421768 25.25881444 -0.23924962 22.36983981 -0.1953125 18.26171875 C-0.18886719 17.19501953 -0.18242188 16.12832031 -0.17578125 15.02929688 C-0.15902344 13.92650391 -0.14226562 12.82371094 -0.125 11.6875 C-0.11597656 10.56537109 -0.10695313 9.44324219 -0.09765625 8.28710938 C-0.07414486 5.52452091 -0.04128155 2.76237068 0 0 Z " fill="#EA942C" transform="translate(116,51)"/>
<path d="M0 0 C0.66 0 1.32 0 2 0 C1.979375 1.11375 1.95875 2.2275 1.9375 3.375 C1.73619282 6.83215921 1.73619282 6.83215921 3 9 C3.24551105 13.41177172 3.18521097 17.83217434 3.1875 22.25 C3.19974609 23.47847656 3.21199219 24.70695312 3.22460938 25.97265625 C3.22750977 27.75736328 3.22750977 27.75736328 3.23046875 29.578125 C3.23457764 30.66512695 3.23868652 31.75212891 3.24291992 32.87207031 C2.98491872 36.19419226 2.17789871 38.8943389 1 42 C0.34 42 -0.32 42 -1 42 C-0.83757812 40.89140625 -0.67515625 39.7828125 -0.5078125 38.640625 C0.11073226 33.67041023 0.15000559 28.75293732 0.125 23.75 C0.1237915 22.82993164 0.12258301 21.90986328 0.12133789 20.96191406 C0.08677591 14.91941701 -0.19177052 8.99045026 -0.87890625 2.984375 C-0.91886719 2.32953125 -0.95882812 1.6746875 -1 1 C-0.67 0.67 -0.34 0.34 0 0 Z " fill="#FDEAC3" transform="translate(194,60)"/>
<path d="M0 0 C0.92192139 0.00128906 1.84384277 0.00257812 2.79370117 0.00390625 C9.43039418 0.0975374 15.46398636 0.86390447 21.6875 3.3125 C18.35698725 4.42267092 17.43804948 4.16826537 14.125 3.375 C6.04367433 1.7522001 -2.11161761 2.15010629 -10.3125 2.3125 C-9.6525 4.6225 -8.9925 6.9325 -8.3125 9.3125 C-11.9000213 7.97999209 -15.1489623 6.481783 -18.3125 4.3125 C-18.3125 3.6525 -18.3125 2.9925 -18.3125 2.3125 C-12.09753395 0.49648547 -6.4616723 -0.03742168 0 0 Z " fill="#FDEFC9" transform="translate(114.3125,18.6875)"/>
<path d="M0 0 C1.53445094 3.06890187 0.54984289 5.70094266 0 9 C-0.66 8.01 -1.32 7.02 -2 6 C-3.69769531 6.97453125 -3.69769531 6.97453125 -5.4296875 7.96875 C-6.91133076 8.81272401 -8.39310858 9.65646181 -9.875 10.5 C-10.62136719 10.92925781 -11.36773437 11.35851562 -12.13671875 11.80078125 C-12.85214844 12.20683594 -13.56757813 12.61289063 -14.3046875 13.03125 C-14.96452637 13.40830078 -15.62436523 13.78535156 -16.30419922 14.17382812 C-18 15 -18 15 -20 15 C-20.33 14.01 -20.66 13.02 -21 12 C-19.35451172 11.07767578 -19.35451172 11.07767578 -17.67578125 10.13671875 C-16.22133265 9.32035083 -14.76690677 8.50394244 -13.3125 7.6875 C-12.59126953 7.28337891 -11.87003906 6.87925781 -11.12695312 6.46289062 C-7.38447704 4.360952 -3.66585243 2.23421775 0 0 Z " fill="#E89E42" transform="translate(173,85)"/>
<path d="M0 0 C7.11791847 3.81607036 14.11027102 7.78545863 21 12 C20.01 12.33 19.02 12.66 18 13 C19.0209375 14.6396875 19.0209375 14.6396875 20.0625 16.3125 C21.22265625 18.17578125 21.22265625 18.17578125 22 20 C21.67 20.99 21.34 21.98 21 23 C20.70867187 22.49210937 20.41734375 21.98421875 20.1171875 21.4609375 C15.65340558 13.96515276 10.91225565 8.81483754 3 5 C-0.27312468 4.21546654 -0.27312468 4.21546654 -3 4 C-2.01 3.67 -1.02 3.34 0 3 C0 2.01 0 1.02 0 0 Z " fill="#E4A148" transform="translate(125,40)"/>
<path d="M0 0 C0.33 0 0.66 0 1 0 C1.33 3.3 1.66 6.6 2 10 C2.66 9.67 3.32 9.34 4 9 C3.97679688 10.01320313 3.95359375 11.02640625 3.9296875 12.0703125 C3.9109159 13.42186758 3.8927172 14.77343069 3.875 16.125 C3.85824219 16.79015625 3.84148437 17.4553125 3.82421875 18.140625 C3.78125317 22.52311396 4.49560574 25.9099281 6 30 C6.125 33.375 6.125 33.375 6 36 C5.34 36 4.68 36 4 36 C4 33.36 4 30.72 4 28 C3.34 28 2.68 28 2 28 C1.67 26.02 1.34 24.04 1 22 C0.67 22 0.34 22 0 22 C0 14.74 0 7.48 0 0 Z " fill="#E59834" transform="translate(77,60)"/>
<path d="M0 0 C0.99 0 1.98 0 3 0 C3.02902429 3.27081471 3.04680684 6.5415963 3.0625 9.8125 C3.07087891 10.74126953 3.07925781 11.67003906 3.08789062 12.62695312 C3.09111328 13.51962891 3.09433594 14.41230469 3.09765625 15.33203125 C3.10289307 16.15421143 3.10812988 16.9763916 3.11352539 17.82348633 C3 20 3 20 2 23 C1.01 23 0.02 23 -1 23 C-0.67 15.41 -0.34 7.82 0 0 Z " fill="#F5D294" transform="translate(114,52)"/>
<path d="M0 0 C0.33 0 0.66 0 1 0 C1.22366479 2.68699992 1.42927009 5.37343797 1.625 8.0625 C1.68945312 8.81466797 1.75390625 9.56683594 1.8203125 10.34179688 C2.17033804 15.39529063 1.66655961 19.21023136 0 24 C-0.66 23.67 -1.32 23.34 -2 23 C-2 22.34 -2 21.68 -2 21 C-3.32 20.67 -4.64 20.34 -6 20 C-6 19.01 -6 18.02 -6 17 C-4.35 17 -2.7 17 -1 17 C-1.01160156 15.94039062 -1.02320312 14.88078125 -1.03515625 13.7890625 C-1.04453476 12.40104342 -1.05363489 11.01302245 -1.0625 9.625 C-1.07087891 8.92632812 -1.07925781 8.22765625 -1.08789062 7.5078125 C-1.11328125 2.2265625 -1.11328125 2.2265625 0 0 Z " fill="#EE9525" transform="translate(112,53)"/>
<path d="M0 0 C6.67218951 -0.51210353 10.26956716 0.68286377 15.8125 4.3125 C16.46669922 4.71662109 17.12089844 5.12074219 17.79492188 5.53710938 C20.84875894 7.45550549 23.51731793 9.39367559 26 12 C23.57102444 12.88910309 22.46485823 13.21146446 20.06469727 12.11962891 C19.07554321 11.43006104 19.07554321 11.43006104 18.06640625 10.7265625 C16.9690918 9.9840625 16.9690918 9.9840625 15.84960938 9.2265625 C15.09486328 8.69804687 14.34011719 8.16953125 13.5625 7.625 C12.06883931 6.58905336 10.57026328 5.560151 9.06640625 4.5390625 C8.40584229 4.07709473 7.74527832 3.61512695 7.06469727 3.13916016 C4.72193768 1.84658404 2.63249549 1.40006834 0 1 C0 0.67 0 0.34 0 0 Z " fill="#E49D43" transform="translate(90,23)"/>
<path d="M0 0 C2.97526665 2.55022856 4.50122302 5.40293526 6 9 C5.67 9.99 5.34 10.98 5 12 C1.35224614 8.11690718 0.41474367 5.28798182 0 0 Z M-7 2 C-5.02 2.99 -5.02 2.99 -3 4 C-3 4.66 -3 5.32 -3 6 C-1.68 6.66 -0.36 7.32 1 8 C1 13.94 1 19.88 1 26 C0.67 26 0.34 26 0 26 C-0.01417969 25.24976562 -0.02835938 24.49953125 -0.04296875 23.7265625 C-0.40185988 16.02495293 -2.09994941 10.61427498 -6 4 C-6.33 3.34 -6.66 2.68 -7 2 Z " fill="#FDECC7" transform="translate(142,56)"/>
<path d="M0 0 C2.76276177 0.52268466 5.3260876 1.10869587 8 2 C11.11490519 9.86923416 10.19357062 17.79420196 9 26 C8.67 26 8.34 26 8 26 C7.16788724 20.96145894 6.8921466 16.1874338 6.9375 11.0625 C6.94201172 10.37865234 6.94652344 9.69480469 6.95117188 8.99023438 C6.9628044 7.32678396 6.98073306 5.6633795 7 4 C6.21625 3.71125 5.4325 3.4225 4.625 3.125 C2 2 2 2 0 0 Z " fill="#E69834" transform="translate(144,26)"/>
<path d="M0 0 C0.66 0.33 1.32 0.66 2 1 C2 2.32 2 3.64 2 5 C-4.65769953 7.80324191 -12.04045299 7.8558792 -19 6 C-18.67 5.01 -18.34 4.02 -18 3 C-12.06 3 -6.12 3 0 3 C0 2.01 0 1.02 0 0 Z " fill="#ECAC69" transform="translate(124,98)"/>
<path d="M0 0 C0.66 0 1.32 0 2 0 C2.33 1.65 2.66 3.3 3 5 C2.38125 5.061875 1.7625 5.12375 1.125 5.1875 C0.42375 5.455625 -0.2775 5.72375 -1 6 C-1.68346682 7.65984798 -2.34588315 9.32836805 -3 11 C-4.82670657 13.49237083 -6.74975127 15.8781622 -9 18 C-9.66 18 -10.32 18 -11 18 C-10.38644969 14.0355211 -8.40143734 11.4475346 -6.0625 8.25 C-4.99708984 6.77273437 -4.99708984 6.77273437 -3.91015625 5.265625 C-3.27980469 4.51796875 -2.64945313 3.7703125 -2 3 C-1.34 3 -0.68 3 0 3 C0 2.01 0 1.02 0 0 Z " fill="#E29D39" transform="translate(113,81)"/>
<path d="M0 0 C4.19813062 3.74427866 6.07776117 6.8403063 8 12 C7.01 12.495 7.01 12.495 6 13 C5.67 12.01 5.34 11.02 5 10 C4.01 9.67 3.02 9.34 2 9 C1.67 9.99 1.34 10.98 1 12 C-0.32 12 -1.64 12 -3 12 C-2.25749403 7.91621717 -1.17076699 3.98060777 0 0 Z " fill="#F89429" transform="translate(179,36)"/>
<path d="M0 0 C0.33 0.99 0.66 1.98 1 3 C0.67 3.33 0.34 3.66 0 4 C-0.09886353 5.62252492 -0.12971167 7.24947273 -0.125 8.875 C-0.12757812 9.75929688 -0.13015625 10.64359375 -0.1328125 11.5546875 C-0.10048585 14.13906291 -0.10048585 14.13906291 1 17 C1.03954234 19.33299825 1.04401732 21.66708189 1 24 C1.66 24 2.32 24 3 24 C3.33 27.3 3.66 30.6 4 34 C1.85975723 31.85975723 1.36635212 30.63796118 0.4375 27.8125 C0.06431641 26.70841797 0.06431641 26.70841797 -0.31640625 25.58203125 C-1.86125848 19.74690367 -2.11571637 14.07594965 -2.0625 8.0625 C-2.05798828 7.37865234 -2.05347656 6.69480469 -2.04882812 5.99023438 C-2.0371956 4.32678396 -2.01926694 2.6633795 -2 1 C-1.34 0.67 -0.68 0.34 0 0 Z " fill="#FEF3D3" transform="translate(58,68)"/>
<path d="M0 0 C2.4375 0.375 2.4375 0.375 5 1 C5.33 1.66 5.66 2.32 6 3 C6.99 3 7.98 3 9 3 C8.88637738 4.4800841 8.75877092 5.95910074 8.625 7.4375 C8.55539063 8.26121094 8.48578125 9.08492187 8.4140625 9.93359375 C8.27742187 10.61550781 8.14078125 11.29742187 8 12 C7.01 12.495 7.01 12.495 6 13 C5.67 11.02 5.34 9.04 5 7 C4.34 7 3.68 7 3 7 C0 2.61538462 0 2.61538462 0 0 Z " fill="#EF941F" transform="translate(143,53)"/>
<path d="M0 0 C2.475 0.99 2.475 0.99 5 2 C3.68 2.33 2.36 2.66 1 3 C1.2204318 6.2527132 1.48148191 9.50093111 1.75 12.75 C1.811875 13.67039062 1.87375 14.59078125 1.9375 15.5390625 C2.35961203 21.0029931 2.35961203 21.0029931 5.078125 25.640625 C6.02945313 26.31351563 6.02945313 26.31351563 7 27 C4.08482708 25.92598892 2.22189824 25.22189824 0 23 C-0.22705078 20.66162109 -0.22705078 20.66162109 -0.1953125 17.7734375 C-0.18886719 16.7421875 -0.18242188 15.7109375 -0.17578125 14.6484375 C-0.15902344 13.56820312 -0.14226562 12.48796875 -0.125 11.375 C-0.11597656 10.28703125 -0.10695313 9.1990625 -0.09765625 8.078125 C-0.07403409 5.38519848 -0.04109556 2.69270745 0 0 Z " fill="#FEF8DB" transform="translate(79,101)"/>
<path d="M0 0 C0.66 0 1.32 0 2 0 C2 0.66 2 1.32 2 2 C2.66 2 3.32 2 4 2 C4 2.66 4 3.32 4 4 C6.97 4.495 6.97 4.495 10 5 C7.19859313 5.93380229 5.68519041 6.08135052 2.8125 6 C-1.55571062 5.94271199 -5.67946231 6.37155815 -10 7 C-10 6.34 -10 5.68 -10 5 C-7 3 -7 3 -4.4375 3.0625 C-3.633125 3.041875 -2.82875 3.02125 -2 3 C-1.34 2.01 -0.68 1.02 0 0 Z " fill="#F5951C" transform="translate(114,36)"/>
<path d="M0 0 C4.96916636 0.51405169 9.29026351 1.23384882 14 3 C13.67 4.98 13.34 6.96 13 9 C12.34 9 11.68 9 11 9 C10.67 8.01 10.34 7.02 10 6 C7.67730041 4.75501391 7.67730041 4.75501391 4.9375 3.8125 C4.01839844 3.46832031 3.09929687 3.12414062 2.15234375 2.76953125 C1.44207031 2.51558594 0.73179688 2.26164062 0 2 C0 1.34 0 0.68 0 0 Z " fill="#EB972E" transform="translate(96,74)"/>
<path d="M0 0 C0 6.93 0 13.86 0 21 C-0.33 21 -0.66 21 -1 21 C-1 15.72 -1 10.44 -1 5 C-6.47825081 4.5527864 -6.47825081 4.5527864 -9 6 C-9.66 5.34 -10.32 4.68 -11 4 C-9.73308493 3.32591692 -8.46129251 2.66099503 -7.1875 2 C-6.47980469 1.62875 -5.77210937 1.2575 -5.04296875 0.875 C-3 0 -3 0 0 0 Z " fill="#FEE3B2" transform="translate(77,59)"/>
<path d="M0 0 C1.02158203 0.00322266 2.04316406 0.00644531 3.09570312 0.00976562 C4.15080078 0.01814453 5.20589844 0.02652344 6.29296875 0.03515625 C7.36740234 0.03966797 8.44183594 0.04417969 9.54882812 0.04882812 C12.19276558 0.06057896 14.83658827 0.07700838 17.48046875 0.09765625 C17.48046875 0.42765625 17.48046875 0.75765625 17.48046875 1.09765625 C14.00194707 1.43795133 10.52256966 1.76859495 7.04296875 2.09765625 C6.06908203 2.19304688 5.09519531 2.2884375 4.09179688 2.38671875 C-1.81001974 2.93939723 -7.59208803 3.19573184 -13.51953125 3.09765625 C-9.10109396 0.15203139 -5.22131192 -0.02916934 0 0 Z " fill="#EAA54A" transform="translate(108.51953125,3.90234375)"/>
<path d="M0 0 C0 0.99 0 1.98 0 3 C-4.95 4.32 -9.9 5.64 -15 7 C-15.33 6.01 -15.66 5.02 -16 4 C-13.89748139 3.32815382 -11.79292237 2.66269032 -9.6875 2 C-8.51574219 1.62875 -7.34398437 1.2575 -6.13671875 0.875 C-3 0 -3 0 0 0 Z " fill="#FEE8B6" transform="translate(139,69)"/>
<path d="M0 0 C0.66 0.33 1.32 0.66 2 1 C0.46462766 5.91319147 -2.41360843 10.32235164 -6 14 C-6.99 14 -7.98 14 -9 14 C-7.65070536 10.16336928 -5.92248975 7.34827431 -3.375 4.1875 C-2.42753906 3.00220703 -2.42753906 3.00220703 -1.4609375 1.79296875 C-0.97882813 1.20128906 -0.49671875 0.60960938 0 0 Z " fill="#FDE9B4" transform="translate(108,84)"/>
<path d="M0 0 C0.66 0 1.32 0 2 0 C3.69140625 2.30078125 3.69140625 2.30078125 5.5625 5.3125 C6.18253906 6.29863281 6.80257812 7.28476563 7.44140625 8.30078125 C9 11 9 11 10 14 C6.41477124 12.52934075 4.55613904 10.59934458 2.1875 7.5625 C1.56230469 6.78003906 0.93710938 5.99757813 0.29296875 5.19140625 C-0.34705078 4.10666016 -0.34705078 4.10666016 -1 3 C-0.67 2.01 -0.34 1.02 0 0 Z " fill="#FEE5B4" transform="translate(120,84)"/>
<path d="M0 0 C2 2 2 2 2.1953125 5.9140625 C2.18200376 7.48449351 2.15813602 9.05486221 2.125 10.625 C2.11597656 11.42679688 2.10695312 12.22859375 2.09765625 13.0546875 C2.07406223 15.03658523 2.03819065 17.01832981 2 19 C0.02 19.99 0.02 19.99 -2 21 C-1.505 19.515 -1.505 19.515 -1 18 C-0.85507877 16.59335074 -0.75371069 15.1818867 -0.68359375 13.76953125 C-0.64169922 12.96708984 -0.59980469 12.16464844 -0.55664062 11.33789062 C-0.51732422 10.50451172 -0.47800781 9.67113281 -0.4375 8.8125 C-0.39431641 7.96751953 -0.35113281 7.12253906 -0.30664062 6.25195312 C-0.20068482 4.16815567 -0.0998498 2.08409897 0 0 Z " fill="#FCE2BA" transform="translate(172,66)"/>
<path d="M0 0 C0.33 0 0.66 0 1 0 C1 6.6 1 13.2 1 20 C-3.0084034 17.9957983 -4.41409657 16.50944037 -7 13 C-6.34 12.67 -5.68 12.34 -5 12 C-4.67 12.66 -4.34 13.32 -4 14 C-3.01 14 -2.02 14 -1 14 C-0.67 9.38 -0.34 4.76 0 0 Z " fill="#FEE4C1" transform="translate(75,100)"/>
<path d="M0 0 C3.66172475 0.62678171 6.8818995 1.64451846 10.3125 3.0625 C11.19550781 3.42472656 12.07851562 3.78695312 12.98828125 4.16015625 C13.65214844 4.43730469 14.31601563 4.71445313 15 5 C15 5.66 15 6.32 15 7 C11.28400809 7.20086443 10.22791555 7.1519437 7 5 C4.67891331 4.29187186 2.34622853 3.61975848 0 3 C0 2.01 0 1.02 0 0 Z " fill="#FDE3B3" transform="translate(91,68)"/>
<path d="M0 0 C0.33 0.99 0.66 1.98 1 3 C-0.40445835 5.2636564 -2.1967913 7.0208685 -4 9 C-4.99 8.67 -5.98 8.34 -7 8 C-7.33 9.32 -7.66 10.64 -8 12 C-8.99 12 -9.98 12 -11 12 C-11 10 -11 10 -8.875 7.6875 C-5.99682278 4.99702999 -3.0544225 2.48615785 0 0 Z " fill="#FDEACC" transform="translate(79,30)"/>
<path d="M0 0 C0.33 0 0.66 0 1 0 C1.66 7.92 2.32 15.84 3 24 C2.67 23.01 2.34 22.02 2 21 C1.01 21 0.02 21 -1 21 C-0.67 14.07 -0.34 7.14 0 0 Z " fill="#FFF3D2" transform="translate(33,76)"/>
<path d="M0 0 C1.60031344 3.20062687 0.03173691 5.72271806 -1 9 C-0.01 9 0.98 9 2 9 C2 8.34 2 7.68 2 7 C3.32 7 4.64 7 6 7 C6 6.34 6 5.68 6 5 C7.32 5.33 8.64 5.66 10 6 C8.21118264 7.00508801 6.41885304 8.00392736 4.625 9 C3.62726563 9.556875 2.62953125 10.11375 1.6015625 10.6875 C-1 12 -1 12 -3 12 C-2.49202991 7.6822542 -1.80317221 3.96697886 0 0 Z " fill="#FCEBC2" transform="translate(61,52)"/>
<path d="M0 0 C0.66 0.33 1.32 0.66 2 1 C1.01 1.33 0.02 1.66 -1 2 C-1 2.66 -1 3.32 -1 4 C-0.46890625 3.83628906 0.0621875 3.67257813 0.609375 3.50390625 C3.53876764 2.88643623 6.25822936 2.90498075 9.25 2.9375 C10.32765625 2.94652344 11.4053125 2.95554688 12.515625 2.96484375 C13.33546875 2.97644531 14.1553125 2.98804688 15 3 C15 3.33 15 3.66 15 4 C12.06407392 4.41599768 9.12821726 4.8084144 6.1875 5.1875 C4.93743164 5.36829102 4.93743164 5.36829102 3.66210938 5.55273438 C2.85966797 5.65263672 2.05722656 5.75253906 1.23046875 5.85546875 C0.12288208 6.00471802 0.12288208 6.00471802 -1.00708008 6.15698242 C-3 6 -3 6 -4.7644043 4.5090332 C-5.17215088 4.01105225 -5.57989746 3.51307129 -6 3 C-4.03533587 1.93224776 -2.03144641 0.93446535 0 0 Z " fill="#F1AC5F" transform="translate(105,39)"/>
<path d="M0 0 C0.33 0 0.66 0 1 0 C1.1875 3.375 1.1875 3.375 1 7 C0.01 7.66 -0.98 8.32 -2 9 C-2.12375 10.134375 -2.2475 11.26875 -2.375 12.4375 C-3 16 -3 16 -5.5625 17.9375 C-6.366875 18.288125 -7.17125 18.63875 -8 19 C-6.68575371 14.75397354 -5.01753614 10.95437084 -3 7 C-1.96840013 4.6789003 -0.98366749 2.34206546 0 0 Z " fill="#FDF0D0" transform="translate(187,116)"/>
<path d="M0 0 C1.875 0.25 1.875 0.25 4 1 C5.3125 2.8125 5.3125 2.8125 6 5 C5.625 7.25 5.625 7.25 5 9 C1.83884224 7.63016497 1.0072908 7.0109362 -1 4 C-0.625 1.8125 -0.625 1.8125 0 0 Z " fill="#FAFDFA" transform="translate(138,55)"/>
<path d="M0 0 C0.33 0 0.66 0 1 0 C1.33 5.28 1.66 10.56 2 16 C1.01 15.67 0.02 15.34 -1 15 C-2.18528133 12.04330922 -2.01099644 9.49426853 -1.625 6.375 C-1.53476563 5.59898438 -1.44453125 4.82296875 -1.3515625 4.0234375 C-1 2 -1 2 0 0 Z " fill="#F9E6C1" transform="translate(87,72)"/>
<path d="M0 0 C0.85152515 2.38111663 1.20739743 3.52298592 0.1796875 5.88671875 C-0.25085938 6.48097656 -0.68140625 7.07523438 -1.125 7.6875 C-1.54007812 8.28949219 -1.95515625 8.89148438 -2.3828125 9.51171875 C-4.47580941 11.43788258 -6.22193547 11.64923428 -9 12 C-8.06692579 10.55962331 -7.12834923 9.12281015 -6.1875 7.6875 C-5.66542969 6.88699219 -5.14335938 6.08648437 -4.60546875 5.26171875 C-3.19610151 3.2762598 -1.77903343 1.6508148 0 0 Z " fill="#FDEDCA" transform="translate(123,215)"/>
<path d="M0 0 C6.625 0.75 6.625 0.75 10 3 C10 3.99 10 4.98 10 6 C5.8333396 5.52651586 3.07115285 4.95303159 0 2 C0 1.34 0 0.68 0 0 Z " fill="#EE973D" transform="translate(89,105)"/>
<path d="M0 0 C0.66 0.33 1.32 0.66 2 1 C2 5.62 2 10.24 2 15 C1.01 15.495 1.01 15.495 0 16 C0.33 12.37 0.66 8.74 1 5 C-1.31 5 -3.62 5 -6 5 C-4 3 -4 3 -1 2 C-0.67 1.34 -0.34 0.68 0 0 Z " fill="#E19A36" transform="translate(140,69)"/>
<path d="M0 0 C5.94 0 11.88 0 18 0 C18 0.33 18 0.66 18 1 C17.10539062 1.04898437 16.21078125 1.09796875 15.2890625 1.1484375 C8.03660879 1.59688346 1.07404867 2.32113591 -6 4 C-6 3.34 -6 2.68 -6 2 C-4.02 2 -2.04 2 0 2 C0 1.34 0 0.68 0 0 Z " fill="#E59436" transform="translate(102,17)"/>
<path d="M0 0 C1.65 0.33 3.3 0.66 5 1 C3.34784004 4.57967992 1.26875648 7.77982952 -1 11 C-1.33 11 -1.66 11 -2 11 C-2 9.35 -2 7.7 -2 6 C-1.01 6 -0.02 6 1 6 C0.01 4.68 -0.98 3.36 -2 2 C-1.34 2 -0.68 2 0 2 C0 1.34 0 0.68 0 0 Z " fill="#EC952D" transform="translate(146,176)"/>
<path d="M0 0 C0.33 1.32 0.66 2.64 1 4 C-0.65 4.33 -2.3 4.66 -4 5 C-4 6.32 -4 7.64 -4 9 C-6.475 8.01 -6.475 8.01 -9 7 C-8 4 -8 4 -6.15234375 2.83203125 C-5.42144531 2.49558594 -4.69054687 2.15914063 -3.9375 1.8125 C-3.20402344 1.46832031 -2.47054687 1.12414062 -1.71484375 0.76953125 C-1.14894531 0.51558594 -0.58304688 0.26164062 0 0 Z " fill="#FEEECC" transform="translate(127,114)"/>
<path d="M0 0 C7.42857143 -0.14285714 7.42857143 -0.14285714 11 1 C10.67 2.32 10.34 3.64 10 5 C8.51800098 4.55090939 7.03944764 4.09043436 5.5625 3.625 C4.73878906 3.36976562 3.91507812 3.11453125 3.06640625 2.8515625 C1 2 1 2 0 0 Z " fill="#E19E40" transform="translate(95,68)"/>
<path d="M0 0 C0.33 0 0.66 0 1 0 C1.15288089 3.21049877 1.10573809 5.68983494 0.0625 8.75 C-1.36504042 13.11659423 -1.6573126 17.43684673 -2 22 C-2.33 22 -2.66 22 -3 22 C-3.45283019 6.90566038 -3.45283019 6.90566038 0 0 Z " fill="#FEDFB7" transform="translate(83,62)"/>
<path d="M0 0 C3.33135891 0.59699131 5.21275667 1.72012281 7.75 3.9375 C8.36359375 4.46214844 8.9771875 4.98679687 9.609375 5.52734375 C11 7 11 7 11 9 C8.13132769 7.61735163 5.43975968 6.07851447 2.75 4.375 C2.04359375 3.92898437 1.3371875 3.48296875 0.609375 3.0234375 C0.07828125 2.68570313 -0.4528125 2.34796875 -1 2 C-0.67 1.34 -0.34 0.68 0 0 Z " fill="#E5A251" transform="translate(125,52)"/>
<path d="M0 0 C0.33 0.99 0.66 1.98 1 3 C3.31 3.33 5.62 3.66 8 4 C5.60236815 6.39763185 4.66726502 6.34280586 1.375 6.625 C0.55773437 6.69976562 -0.25953125 6.77453125 -1.1015625 6.8515625 C-1.72804687 6.90054688 -2.35453125 6.94953125 -3 7 C-1.125 1.125 -1.125 1.125 0 0 Z " fill="#ED952F" transform="translate(144,96)"/>
<path d="M0 0 C0.99 1.32 1.98 2.64 3 4 C2.34 4 1.68 4 1 4 C0.67 5.65 0.34 7.3 0 9 C-1.32 8.34 -2.64 7.68 -4 7 C-4 4 -4 4 -2 1.8125 C-1.34 1.214375 -0.68 0.61625 0 0 Z " fill="#FEFAF9" transform="translate(138,94)"/>
<path d="M0 0 C4 4.5 4 4.5 4 9 C2.68 8.67 1.36 8.34 0 8 C-0.33 6.68 -0.66 5.36 -1 4 C-1.66 4 -2.32 4 -3 4 C-2 2 -2 2 0 0 Z " fill="#E89D35" transform="translate(123,80)"/>
<path d="M0 0 C-1.89454824 0.96087136 -3.79069581 1.91858969 -5.6875 2.875 C-6.74324219 3.40867187 -7.79898438 3.94234375 -8.88671875 4.4921875 C-11.55995905 5.78688105 -14.2271133 6.94023254 -17 8 C-17 7.34 -17 6.68 -17 6 C-11.99205681 2.12288269 -6.36310606 -1.84476604 0 0 Z " fill="#FEF0CF" transform="translate(85,10)"/>
<path d="M0 0 C0.66 0 1.32 0 2 0 C0.13236819 5.72210596 -1.85289032 11.37661751 -4 17 C-5.1577506 13.52674819 -5.06866652 10.63932552 -5 7 C-4.01 7.33 -3.02 7.66 -2 8 C-2.04125 7.236875 -2.0825 6.47375 -2.125 5.6875 C-2 3 -2 3 0 0 Z " fill="#FDF2D9" transform="translate(41,47)"/>
<path d="M0 0 C3.3 0 6.6 0 10 0 C10 0.66 10 1.32 10 2 C12.64 2.33 15.28 2.66 18 3 C18.33 3.99 18.66 4.98 19 6 C18.29875 5.80664062 17.5975 5.61328125 16.875 5.4140625 C11.26507866 3.874383 5.64989553 2.38582343 0 1 C0 0.67 0 0.34 0 0 Z " fill="#FDE6BA" transform="translate(130,5)"/>
<path d="M0 0 C0.99 0.33 1.98 0.66 3 1 C2.979375 1.721875 2.95875 2.44375 2.9375 3.1875 C2.99820559 5.91925138 3.39258535 8.34256091 4 11 C0.91910327 8.22719294 -0.68775452 5.93673644 -2 2 C-1.34 1.34 -0.68 0.68 0 0 Z " fill="#EE9A34" transform="translate(77,170)"/>
<path d="M0 0 C1.98 0 3.96 0 6 0 C4.02 2.97 2.04 5.94 0 9 C-1.53445094 5.93109813 -0.54984289 3.29905734 0 0 Z " fill="#E99836" transform="translate(152,168)"/>
<path d="M0 0 C0.33 0.66 0.66 1.32 1 2 C3.31 2 5.62 2 8 2 C5.64722731 4.72426311 3.37503669 5.8141763 0 7 C-0.66 6.01 -1.32 5.02 -2 4 C-2.66 3.67 -3.32 3.34 -4 3 C-2.68 2.01 -1.36 1.02 0 0 Z " fill="#EFA552" transform="translate(141,100)"/>
<path d="M0 0 C4.19813062 3.74427866 6.07776117 6.8403063 8 12 C7.01 12.495 7.01 12.495 6 13 C5.7525 12.030625 5.505 11.06125 5.25 10.0625 C4.8375 9.051875 4.425 8.04125 4 7 C1.96756452 6.03122943 1.96756452 6.03122943 0 6 C0 4.02 0 2.04 0 0 Z " fill="#EE9D3E" transform="translate(179,36)"/>
<path d="M0 0 C0.33 1.32 0.66 2.64 1 4 C0.34 4 -0.32 4 -1 4 C-1.103125 4.5775 -1.20625 5.155 -1.3125 5.75 C-2.09792798 8.32049158 -3.30504197 9.93657284 -5 12 C-5.99 11.67 -6.98 11.34 -8 11 C-5.36 7.37 -2.72 3.74 0 0 Z " fill="#FEEDD1" transform="translate(146,184)"/>
<path d="M0 0 C2.475 0.495 2.475 0.495 5 1 C5.33 2.65 5.66 4.3 6 6 C3.03 5.505 3.03 5.505 0 5 C0 3.35 0 1.7 0 0 Z " fill="#F7FEF9" transform="translate(130,49)"/>
<path d="M0 0 C0.309375 0.639375 0.61875 1.27875 0.9375 1.9375 C1.8345163 3.93610821 1.8345163 3.93610821 3 5 C3.66 3.68 4.32 2.36 5 1 C5.36923077 7.4 5.36923077 7.4 3.5 10.4375 C3.005 10.953125 2.51 11.46875 2 12 C0.70756464 7.8803623 -0.26252625 4.33168317 0 0 Z " fill="#EA9731" transform="translate(147,60)"/>
<path d="M0 0 C2.31 0.33 4.62 0.66 7 1 C7 1.66 7 2.32 7 3 C11.455 3.99 11.455 3.99 16 5 C11.59239267 6.10190183 10.42289039 5.74055805 6.3125 4.1875 C5.33925781 3.83042969 4.36601563 3.47335938 3.36328125 3.10546875 C1 2 1 2 0 0 Z " fill="#FEE9BC" transform="translate(96,106)"/>
<path d="M0 0 C0.99 0 1.98 0 3 0 C1.74194623 4.50802601 0.09592835 7.4912812 -3 11 C-4 8 -4 8 -3.22265625 5.95703125 C-2.83980469 5.24933594 -2.45695313 4.54164062 -2.0625 3.8125 C-1.68222656 3.09707031 -1.30195313 2.38164063 -0.91015625 1.64453125 C-0.60980469 1.10183594 -0.30945313 0.55914062 0 0 Z " fill="#E7AA60" transform="translate(139,84)"/>
<path d="M0 0 C2.3431213 0.25561323 4.67843403 0.59270772 7 1 C7.33 1.66 7.66 2.32 8 3 C8.825 3.309375 9.65 3.61875 10.5 3.9375 C11.7375 4.4634375 11.7375 4.4634375 13 5 C13.33 5.99 13.66 6.98 14 8 C9.02790438 6.23570801 4.56561939 3.6060834 0 1 C0 0.67 0 0.34 0 0 Z " fill="#FEEAC5" transform="translate(149,11)"/>
<path d="M0 0 C4.29 2.31 8.58 4.62 13 7 C13 7.33 13 7.66 13 8 C8.75776898 8.3636198 6.41831915 7.5393228 3 5 C3 4.34 3 3.68 3 3 C2.01 2.67 1.02 2.34 0 2 C0 1.34 0 0.68 0 0 Z " fill="#FEF2D3" transform="translate(111,120)"/>
<path d="M0 0 C0 3.9478088 -1.33724565 5.18508826 -4 8 C-4.99 8 -5.98 8 -7 8 C-7.33 8.99 -7.66 9.98 -8 11 C-8.66 11 -9.32 11 -10 11 C-8.55218207 7.55571735 -6.72305391 5.63869038 -3.875 3.25 C-3.15054688 2.63640625 -2.42609375 2.0228125 -1.6796875 1.390625 C-0.84824219 0.70226562 -0.84824219 0.70226562 0 0 Z " fill="#E2A13A" transform="translate(159,116)"/>
<path d="M0 0 C0.99 0 1.98 0 3 0 C2.979375 0.763125 2.95875 1.52625 2.9375 2.3125 C2.87057159 5.10185786 2.87057159 5.10185786 4 8 C1.08482708 6.92598892 -0.77810176 6.22189824 -3 4 C-1.68 4 -0.36 4 1 4 C0.67 2.68 0.34 1.36 0 0 Z " fill="#FDF2D9" transform="translate(109,24)"/>
<path d="M0 0 C4.29 0 8.58 0 13 0 C7.9010989 3.82417582 7.9010989 3.82417582 5 4 C2.25 2.625 2.25 2.625 0 1 C0 0.67 0 0.34 0 0 Z " fill="#FDEFC7" transform="translate(131,128)"/>
<path d="M0 0 C2.475 0.99 2.475 0.99 5 2 C3.68 2.33 2.36 2.66 1 3 C1 7.29 1 11.58 1 16 C0.67 16 0.34 16 0 16 C0 10.72 0 5.44 0 0 Z " fill="#FFE6B4" transform="translate(79,101)"/>
<path d="M0 0 C0 0.66 0 1.32 0 2 C-3.33333333 3.66666667 -6.66666667 5.33333333 -10 7 C-10 6.01 -10 5.02 -10 4 C-6.35022743 1.09677182 -4.74147821 0 0 0 Z " fill="#DCA250" transform="translate(108,51)"/>
<path d="M0 0 C0 0.66 0 1.32 0 2 C-8.42857143 5.28571429 -8.42857143 5.28571429 -13 6 C-9.79001231 2.03472109 -5.0381893 0 0 0 Z " fill="#E5A041" transform="translate(88,9)"/>
<path d="M0 0 C0.66 0 1.32 0 2 0 C2.33 1.65 2.66 3.3 3 5 C2.38125 5.103125 1.7625 5.20625 1.125 5.3125 C-1.36526484 5.87525373 -1.36526484 5.87525373 -3 9 C-3.33 8.01 -3.66 7.02 -4 6 C-3.34 5.01 -2.68 4.02 -2 3 C-1.34 3 -0.68 3 0 3 C0 2.01 0 1.02 0 0 Z " fill="#F48E1D" transform="translate(113,81)"/>
<path d="M0 0 C5.66710699 1.31793186 7.66437233 3.48709197 11 8 C9.35 7.67 7.7 7.34 6 7 C5.67 6.01 5.34 5.02 5 4 C2.49552484 2.78130071 2.49552484 2.78130071 0 2 C0 1.34 0 0.68 0 0 Z " fill="#FEEFCB" transform="translate(129,46)"/>
<path d="M0 0 C0.33 0.66 0.66 1.32 1 2 C1.99 2.33 2.98 2.66 4 3 C2.35 4.65 0.7 6.3 -1 8 C-1.04241723 5.66705225 -1.04092937 3.33297433 -1 1 C-0.67 0.67 -0.34 0.34 0 0 Z " fill="#EB9828" transform="translate(121,210)"/>
<path d="M0 0 C3.48331435 3.01887244 4.79157144 5.56909529 6 10 C4 10 4 10 2.4375 8.9375 C0.35943153 6.13662511 0.32189473 3.41208416 0 0 Z " fill="#FDEBC4" transform="translate(56,144)"/>
<path d="M0 0 C2.64 0 5.28 0 8 0 C8 0.66 8 1.32 8 2 C6.68 1.67 5.36 1.34 4 1 C4 1.99 4 2.98 4 4 C2.68 4 1.36 4 0 4 C0 2.68 0 1.36 0 0 Z " fill="#F5941C" transform="translate(116,113)"/>
<path d="M0 0 C3.125 -0.1875 3.125 -0.1875 6 0 C6 0.66 6 1.32 6 2 C3.64561267 3.42944945 2.51967567 4.08661261 -0.25 3.625 C-0.8275 3.41875 -1.405 3.2125 -2 3 C-1.34 2.01 -0.68 1.02 0 0 Z " fill="#E7942B" transform="translate(126,110)"/>
<path d="M0 0 C0.33 0 0.66 0 1 0 C1.44539877 8.7595092 1.44539877 8.7595092 -2 13 C-2.66 13 -3.32 13 -4 13 C-2.77443263 8.62297367 -1.46939453 4.30322683 0 0 Z " fill="#FDEAC2" transform="translate(192,102)"/>
<path d="M0 0 C0.6875 1.8125 0.6875 1.8125 1 4 C-0.4375 5.75 -0.4375 5.75 -2 7 C-2.33 6.01 -2.66 5.02 -3 4 C-3.66 4 -4.32 4 -5 4 C-5 3.34 -5 2.68 -5 2 C-3.35 1.34 -1.7 0.68 0 0 Z " fill="#F69515" transform="translate(123,76)"/>
<path d="M0 0 C4.17882671 2.56428003 7.12505529 5.01930733 10 9 C7.0625 8.1875 7.0625 8.1875 4 7 C3.67 6.01 3.34 5.02 3 4 C2.01 3.34 1.02 2.68 0 2 C0 1.34 0 0.68 0 0 Z " fill="#E99C42" transform="translate(164,21)"/>
<path d="M0 0 C0.33 0.66 0.66 1.32 1 2 C-0.98 4.97 -2.96 7.94 -5 11 C-5.99 10.67 -6.98 10.34 -8 10 C-5.36 6.7 -2.72 3.4 0 0 Z " fill="#FEEAC7" transform="translate(132,203)"/>
<path d="M0 0 C3.22914643 3.22914643 4.82681003 6.02830798 7 10 C6.34 10 5.68 10 5 10 C5 9.34 5 8.68 5 8 C4.34 8 3.68 8 3 8 C2.67 8.66 2.34 9.32 2 10 C1.34 6.7 0.68 3.4 0 0 Z " fill="#FDEED1" transform="translate(62,154)"/>
<path d="M0 0 C1 4 1 4 -0.3125 6.75 C-0.869375 7.4925 -1.42625 8.235 -2 9 C-2.66 9 -3.32 9 -4 9 C-4 9.66 -4 10.32 -4 11 C-4.66 10.67 -5.32 10.34 -6 10 C-4.02 6.7 -2.04 3.4 0 0 Z " fill="#FEF2D4" transform="translate(171,147)"/>
<path d="M0 0 C1.9375 0.625 1.9375 0.625 4 2 C4.75 5.125 4.75 5.125 5 8 C2 7 2 7 0.8125 5.125 C0 3 0 3 0 0 Z " fill="#E79732" transform="translate(123,94)"/>
<path d="M0 0 C2 2 2 2 2 5 C2.66 5 3.32 5 4 5 C4.33 7.64 4.66 10.28 5 13 C1.42988974 9.267612 0.89086558 4.9050011 0 0 Z " fill="#FFEFC8" transform="translate(81,83)"/>
<path d="M0 0 C0.33 0.99 0.66 1.98 1 3 C0.67 3.33 0.34 3.66 0 4 C-0.23427778 6.01594582 -0.41336124 8.038474 -0.5625 10.0625 C-0.64628906 11.16722656 -0.73007812 12.27195312 -0.81640625 13.41015625 C-0.87699219 14.26480469 -0.93757813 15.11945313 -1 16 C-1.33 16 -1.66 16 -2 16 C-2 11.05 -2 6.1 -2 1 C-1.34 0.67 -0.68 0.34 0 0 Z " fill="#FDE3BF" transform="translate(58,68)"/>
<path d="M0 0 C0 0.99 0 1.98 0 3 C-2.8125 3.625 -2.8125 3.625 -6 4 C-6.99 3.34 -7.98 2.68 -9 2 C-3.375 0 -3.375 0 0 0 Z " fill="#FDE4A8" transform="translate(139,69)"/>
<path d="M0 0 C-1.44390925 3.80666984 -3.34952803 5.26602582 -7 7 C-7.66 6.67 -8.32 6.34 -9 6 C-7.8803014 4.99406757 -6.7540588 3.9954151 -5.625 3 C-4.68527344 2.1646875 -4.68527344 2.1646875 -3.7265625 1.3125 C-2 0 -2 0 0 0 Z " fill="#FEEFCC" transform="translate(105,54)"/>
<path d="M0 0 C1.32 0 2.64 0 4 0 C4.33 0.99 4.66 1.98 5 3 C4.67 3.66 4.34 4.32 4 5 C2.68 5 1.36 5 0 5 C-0.5625 3.0625 -0.5625 3.0625 -1 1 C-0.67 0.67 -0.34 0.34 0 0 Z " fill="#FAFEF9" transform="translate(98,48)"/>
<path d="M0 0 C1.32 0 2.64 0 4 0 C4 0.66 4 1.32 4 2 C6.97 2.495 6.97 2.495 10 3 C10 3.99 10 4.98 10 6 C6.00499382 4.6302836 3.19990508 2.74277578 0 0 Z " fill="#FEF0CF" transform="translate(121,37)"/>
<path d="M0 0 C1.65 0.99 3.3 1.98 5 3 C4.67 4.32 4.34 5.64 4 7 C3.67 6.34 3.34 5.68 3 5 C1.35 5 -0.3 5 -2 5 C-1.34 3.35 -0.68 1.7 0 0 Z " fill="#FEF8DC" transform="translate(145,27)"/>
<path d="M0 0 C2.97 0.33 5.94 0.66 9 1 C8.01 1.495 8.01 1.495 7 2 C6.67 2.99 6.34 3.98 6 5 C3.98079663 3.69593116 1.98075027 2.36176581 0 1 C0 0.67 0 0.34 0 0 Z " fill="#FBF2D9" transform="translate(123,123)"/>
<path d="M0 0 C0.66 0 1.32 0 2 0 C2.33 0.66 2.66 1.32 3 2 C5.02463255 2.65213292 5.02463255 2.65213292 7 3 C7 4.32 7 5.64 7 7 C3.17053157 5.54744301 1.87949705 3.57104439 0 0 Z " fill="#FFF2D5" transform="translate(68,112)"/>
<path d="M0 0 C1.65 0 3.3 0 5 0 C5 0.66 5 1.32 5 2 C5.66 2.33 6.32 2.66 7 3 C6.67 3.66 6.34 4.32 6 5 C4.68 4.34 3.36 3.68 2 3 C2 3.66 2 4.32 2 5 C1.34 5 0.68 5 0 5 C0 3.35 0 1.7 0 0 Z " fill="#EE9733" transform="translate(77,98)"/>
<path d="M0 0 C0.33 0.66 0.66 1.32 1 2 C1.66 2.33 2.32 2.66 3 3 C2.01 4.32 1.02 5.64 0 7 C-1.32 6.34 -2.64 5.68 -4 5 C-3.34 5 -2.68 5 -2 5 C-1.34 3.35 -0.68 1.7 0 0 Z " fill="#E5A34B" transform="translate(100,89)"/>
<path d="M0 0 C2.31 0 4.62 0 7 0 C6.01 1.485 6.01 1.485 5 3 C1.375 3.1875 1.375 3.1875 -2 3 C-1.34 2.67 -0.68 2.34 0 2 C0 1.34 0 0.68 0 0 Z " fill="#E3943A" transform="translate(128,68)"/>
<path d="M0 0 C5 2 5 2 10 4 C10 4.33 10 4.66 10 5 C6.63295715 5.2295711 4.58629732 5.33943529 1.625 3.625 C1.08875 3.08875 0.5525 2.5525 0 2 C0 1.34 0 0.68 0 0 Z " fill="#EE9A44" transform="translate(84,128)"/>
<path d="M0 0 C2.64752004 2.57784846 4.94432065 4.91648098 7 8 C5.35 7.67 3.7 7.34 2 7 C1.34 4.69 0.68 2.38 0 0 Z " fill="#E4A441" transform="translate(66,111)"/>
<path d="M0 0 C0 1.65 0 3.3 0 5 C-0.66 5 -1.32 5 -2 5 C-2 4.34 -2 3.68 -2 3 C-3.65 2.67 -5.3 2.34 -7 2 C-4 0 -4 0 0 0 Z " fill="#F28F24" transform="translate(86,98)"/>
<path d="M0 0 C0.66 0 1.32 0 2 0 C3.5078125 1.53125 3.5078125 1.53125 5.125 3.5 C5.66382812 4.1496875 6.20265625 4.799375 6.7578125 5.46875 C7.16773437 5.9740625 7.57765625 6.479375 8 7 C7.01 7.495 7.01 7.495 6 8 C1.125 3.375 1.125 3.375 0 0 Z " fill="#E09538" transform="translate(92,91)"/>
<path d="M0 0 C1.32 0 2.64 0 4 0 C3.67 1.65 3.34 3.3 3 5 C2.01 5 1.02 5 0 5 C0 3.35 0 1.7 0 0 Z " fill="#FFEBC0" transform="translate(113,75)"/>
<path d="M0 0 C3.37503669 1.1858237 5.64722731 2.27573689 8 5 C5.69 4.67 3.38 4.34 1 4 C0.67 2.68 0.34 1.36 0 0 Z " fill="#FDF2CC" transform="translate(84,104)"/>
<path d="M0 0 C1.32 1.32 2.64 2.64 4 4 C1.36 4.33 -1.28 4.66 -4 5 C-2.68 3.35 -1.36 1.7 0 0 Z " fill="#FEF4D4" transform="translate(114,87)"/>
<path d="M0 0 C0.66 0 1.32 0 2 0 C2.66 2.31 3.32 4.62 4 7 C3.01 7 2.02 7 1 7 C0.67 4.69 0.34 2.38 0 0 Z " fill="#E2A35F" transform="translate(89,84)"/>
<path d="M0 0 C0.33 1.32 0.66 2.64 1 4 C1.66 4 2.32 4 3 4 C3 5.32 3 6.64 3 8 C2.01 8 1.02 8 0 8 C-0.79953138 4.71303767 -1.09658936 3.28976808 0 0 Z " fill="#F6B96B" transform="translate(117,76)"/>
<path d="M0 0 C0.66 0.33 1.32 0.66 2 1 C2 2.32 2 3.64 2 5 C2.66 5.33 3.32 5.66 4 6 C2.68 6 1.36 6 0 6 C-0.66 4.35 -1.32 2.7 -2 1 C-1.34 0.67 -0.68 0.34 0 0 Z " fill="#E79C24" transform="translate(118,72)"/>
<path d="M0 0 C0.99 0.99 1.98 1.98 3 3 C2.67 3.99 2.34 4.98 2 6 C0.02 6.33 -1.96 6.66 -4 7 C-3.34 6.01 -2.68 5.02 -2 4 C-1.01 4 -0.02 4 1 4 C0.67 2.68 0.34 1.36 0 0 Z " fill="#FDEABA" transform="translate(134,61)"/>
<path d="M0 0 C1.5 1.125 1.5 1.125 3 3 C3.1875 6.1875 3.1875 6.1875 3 9 C2.67 8.34 2.34 7.68 2 7 C1.34 7 0.68 7 0 7 C0 4.69 0 2.38 0 0 Z " fill="#FB921A" transform="translate(78,55)"/>
<path d="M0 0 C2.5 1.375 2.5 1.375 5 3 C5 3.66 5 4.32 5 5 C2.36 4.67 -0.28 4.34 -3 4 C-2.01 3.67 -1.02 3.34 0 3 C0 2.01 0 1.02 0 0 Z " fill="#E79B49" transform="translate(125,40)"/>
<path d="M0 0 C0.66 0 1.32 0 2 0 C2 0.66 2 1.32 2 2 C2.66 2 3.32 2 4 2 C4 2.66 4 3.32 4 4 C6.97 4.495 6.97 4.495 10 5 C6.1851221 6.27162597 4.6068725 5.64661571 1 4 C0.125 1.875 0.125 1.875 0 0 Z " fill="#F29A25" transform="translate(114,36)"/>
<path d="M0 0 C0 0.99 0 1.98 0 3 C-0.99 3 -1.98 3 -3 3 C-3 3.66 -3 4.32 -3 5 C-3.66 5 -4.32 5 -5 5 C-5.33 4.01 -5.66 3.02 -6 2 C-3 0 -3 0 0 0 Z " fill="#FB9216" transform="translate(75,30)"/>
<path d="M0 0 C7.75 -0.125 7.75 -0.125 10 1 C9.67 1.99 9.34 2.98 9 4 C6.03 3.01 3.06 2.02 0 1 C0 0.67 0 0.34 0 0 Z " fill="#EBA456" transform="translate(90,23)"/>
<path d="M0 0 C0.66 0 1.32 0 2 0 C2 0.66 2 1.32 2 2 C2.99 2 3.98 2 5 2 C5 4.31 5 6.62 5 9 C2.67527795 6.14693203 1.2491742 3.45925163 0 0 Z " fill="#E7A23D" transform="translate(47,126)"/>
<path d="M0 0 C1.98 0 3.96 0 6 0 C5.34 1.32 4.68 2.64 4 4 C2.68 3.67 1.36 3.34 0 3 C0 2.01 0 1.02 0 0 Z " fill="#FBFEFA" transform="translate(104,105)"/>
<path d="M0 0 C0.99 0.33 1.98 0.66 3 1 C3 1.99 3 2.98 3 4 C3.66 4 4.32 4 5 4 C5.33 5.65 5.66 7.3 6 9 C2.91910327 6.22719294 1.31224548 3.93673644 0 0 Z " fill="#FEEFCB" transform="translate(62,103)"/>
<path d="M0 0 C1.32 0.66 2.64 1.32 4 2 C0.25 5 0.25 5 -2 5 C-2.33 3.68 -2.66 2.36 -3 1 C-2.01 1.33 -1.02 1.66 0 2 C0 1.34 0 0.68 0 0 Z " fill="#EBA44F" transform="translate(130,96)"/>
<path d="M0 0 C-2.57089417 2.11180592 -4.63060567 3.66306057 -8 4 C-8.66 3.34 -9.32 2.68 -10 2 C-6.49223216 0.39644899 -3.85645121 -0.22036864 0 0 Z " fill="#FDF6D7" transform="translate(170,87)"/>
<path d="M0 0 C0.66 0 1.32 0 2 0 C2 0.66 2 1.32 2 2 C2.66 2.33 3.32 2.66 4 3 C2.68 4.32 1.36 5.64 0 7 C0 4.69 0 2.38 0 0 Z " fill="#FEFDF7" transform="translate(91,75)"/>
<path d="M0 0 C3.465 1.98 3.465 1.98 7 4 C6.67 4.66 6.34 5.32 6 6 C5.34 6 4.68 6 4 6 C4 5.34 4 4.68 4 4 C3.01 4 2.02 4 1 4 C0.67 2.68 0.34 1.36 0 0 Z " fill="#FEEDBB" transform="translate(105,31)"/>
<path d="M0 0 C-2.31 1.32 -4.62 2.64 -7 4 C-7 2.68 -7 1.36 -7 0 C-3.86650268 -1.04449911 -3.01031744 -0.93423645 0 0 Z " fill="#E89C35" transform="translate(88,25)"/>
<path d="M0 0 C0.33 0.66 0.66 1.32 1 2 C0.34 2 -0.32 2 -1 2 C-1 2.99 -1 3.98 -1 5 C-2.98 5.33 -4.96 5.66 -7 6 C-2.25 1.125 -2.25 1.125 0 0 Z " fill="#EAA846" transform="translate(70,17)"/>
</svg>
