<?xml version="1.0" standalone="no"?>
<!DOCTYPE svg PUBLIC "-//W3C//DTD SVG 20010904//EN"
 "http://www.w3.org/TR/2001/REC-SVG-20010904/DTD/svg10.dtd">
<svg version="1.0" xmlns="http://www.w3.org/2000/svg"
 width="512.000000pt" height="512.000000pt" viewBox="0 0 512.000000 512.000000"
 preserveAspectRatio="xMidYMid meet">

<g transform="translate(0.000000,512.000000) scale(0.100000,-0.100000)"
fill="#F6931D" stroke="none">
<path d="M2247 4950 c-124 -21 -257 -76 -367 -150 -61 -41 -220 -204 -220
-224 0 -12 94 -81 119 -88 5 -2 25 19 46 45 80 104 235 205 370 241 89 24 208
30 295 16 120 -20 110 -24 135 57 l23 73 -37 9 c-110 30 -261 38 -364 21z"/>
<path d="M2786 4776 c-20 -35 -36 -66 -36 -69 0 -2 31 -28 70 -56 38 -29 95
-85 126 -124 31 -40 60 -71 64 -70 4 1 34 18 68 38 l62 37 -32 47 c-47 68
-144 167 -214 217 -34 24 -64 44 -67 44 -3 0 -21 -29 -41 -64z"/>
<path d="M2304 4632 c-9 -5 -9 -25 0 -77 l11 -70 80 -6 c122 -10 187 -39 269
-121 l68 -68 64 37 c35 20 64 40 64 44 0 4 -18 30 -40 58 -77 98 -187 166
-312 196 -66 15 -185 20 -204 7z"/>
<path d="M2070 4544 c-34 -23 -108 -93 -131 -126 l-20 -27 60 -40 c33 -23 63
-41 67 -41 4 0 23 17 43 38 20 21 49 47 65 58 l29 21 -37 66 c-21 37 -41 67
-45 67 -3 0 -18 -7 -31 -16z"/>
<path d="M2319 4311 c-54 -18 -129 -71 -129 -92 0 -5 28 -27 61 -50 61 -41 62
-41 89 -25 37 21 62 20 91 -3 24 -19 25 -19 92 21 l67 40 -21 29 c-46 65 -173
105 -250 80z"/>
<path d="M2325 3911 c-92 -24 -173 -90 -215 -176 -24 -48 -25 -60 -28 -263 -4
-233 1 -255 53 -268 24 -6 25 -9 25 -86 0 -43 -3 -77 -7 -75 -5 2 -126 74
-270 160 l-261 157 -627 0 c-464 0 -638 -3 -669 -12 -55 -16 -138 -99 -154
-154 -28 -95 -8 -168 65 -241 28 -29 58 -53 66 -53 12 0 16 -21 19 -104 3 -91
6 -108 30 -143 15 -22 44 -51 65 -64 l38 -24 505 0 505 0 38 24 c56 35 88 88
94 159 l6 60 278 -185 279 -186 0 -1114 0 -1114 25 -24 c24 -25 26 -25 215
-25 189 0 191 0 215 25 l25 24 0 936 0 935 213 0 c155 0 218 3 230 13 9 6 95
118 192 247 97 129 181 236 188 238 7 1 70 -22 140 -53 140 -60 176 -66 208
-34 l21 21 69 -26 c172 -64 334 -4 411 152 29 58 33 76 32 142 0 44 -7 90 -16
111 l-16 36 71 29 c80 33 113 68 103 108 -4 15 -15 34 -25 42 -24 21 -915 404
-939 404 -11 0 -31 -9 -46 -21 -21 -17 -26 -29 -26 -65 0 -24 -3 -44 -6 -44
-3 0 -79 32 -169 70 -90 39 -173 70 -184 70 -44 0 -70 -43 -186 -317 -126
-296 -129 -309 -72 -344 17 -10 62 -31 99 -46 37 -15 68 -31 68 -34 0 -3 -36
-54 -80 -112 l-80 -107 -100 0 -100 0 0 319 0 319 25 6 c53 13 57 36 53 268
l-3 213 -34 63 c-57 105 -144 160 -260 167 -36 2 -79 1 -96 -4z m139 -165 c40
-17 83 -71 92 -114 l7 -32 -162 0 c-175 0 -172 -1 -150 57 32 84 128 125 213
89z m96 -346 l0 -40 -160 0 -160 0 0 40 0 40 160 0 160 0 0 -40z m753 -141
l165 -70 5 -42 c3 -23 4 -43 3 -45 -4 -4 -359 148 -370 158 -10 10 11 70 24
70 5 0 83 -32 173 -71z m600 -83 c153 -66 274 -123 270 -126 -5 -4 -73 -33
-154 -65 l-145 -57 -112 47 c-62 27 -112 51 -112 54 0 3 -9 66 -19 139 -10 73
-15 131 -11 130 3 -2 131 -57 283 -122z m-2046 -149 l288 -173 3 -112 3 -113
-308 206 -308 205 -588 0 -588 0 -24 25 c-16 15 -25 36 -25 55 0 19 9 40 25
55 l24 25 605 0 605 0 288 -173z m613 -1267 l0 -1440 -80 0 -80 0 0 1440 0
1440 80 0 80 0 0 -1440z m923 1199 c194 -82 356 -154 361 -159 11 -11 -43
-140 -58 -140 -6 0 -172 69 -368 152 -310 133 -357 155 -352 171 11 36 54 127
60 127 3 0 164 -68 357 -151z m-1963 -147 c0 -40 -5 -73 -12 -80 -17 -17 -919
-17 -936 0 -7 7 -12 40 -12 80 l0 68 480 0 480 0 0 -68z m2740 13 c24 -74 -16
-162 -87 -191 -46 -20 -100 -16 -154 9 l-47 22 25 57 25 57 96 39 c54 22 105
41 114 41 10 1 21 -12 28 -34z m-945 -142 c36 -15 65 -30 65 -35 0 -5 -68 -98
-150 -208 l-150 -200 -180 0 -180 0 0 80 0 80 129 0 c71 0 136 3 145 6 8 3 65
73 127 155 61 82 115 149 120 149 5 0 38 -12 74 -27z"/>
<path d="M420 2335 c-39 -58 -73 -112 -76 -119 -4 -9 16 -29 55 -55 33 -23 62
-41 65 -41 6 0 144 204 152 224 4 9 -16 29 -55 55 -33 23 -62 41 -65 41 -3 0
-37 -47 -76 -105z"/>
<path d="M1357 2399 c-37 -26 -56 -46 -53 -55 8 -20 146 -224 152 -224 3 0 32
18 65 41 39 26 59 46 55 55 -10 25 -146 224 -154 223 -4 0 -33 -18 -65 -40z"/>
<path d="M880 2240 l0 -160 80 0 80 0 0 160 0 160 -80 0 -80 0 0 -160z"/>
<path d="M3867 2305 c-184 -37 -362 -175 -447 -347 -23 -48 -40 -93 -38 -100
5 -11 136 -54 143 -46 1 2 17 34 36 73 67 138 212 244 368 268 l71 11 0 78 0
78 -32 -1 c-18 0 -64 -7 -101 -14z"/>
<path d="M3903 1971 c-62 -21 -122 -61 -150 -99 -23 -32 -56 -93 -51 -96 2 -2
35 -14 73 -28 l70 -26 27 39 c19 27 41 43 77 56 l51 18 0 77 c0 74 -1 78 -22
78 -13 -1 -46 -9 -75 -19z"/>
<path d="M4105 1661 c-48 -22 -69 -44 -90 -94 -13 -31 -15 -120 -15 -649 0
-573 2 -616 19 -653 22 -48 44 -69 94 -90 54 -22 680 -22 734 0 50 21 72 42
94 90 17 37 19 79 19 655 0 576 -2 618 -19 655 -22 48 -44 69 -94 90 -30 12
-92 15 -369 15 -302 0 -337 -2 -373 -19z m693 -183 l3 -38 -320 0 -321 0 0 33
c0 19 3 37 7 40 4 4 146 6 317 5 l311 -3 3 -37z m2 -558 l0 -360 -320 0 -320
0 0 360 0 360 320 0 320 0 0 -360z m-2 -557 l-3 -38 -315 0 -315 0 -3 38 -3
37 321 0 321 0 -3 -37z"/>
<path d="M4400 1140 c0 -47 -3 -60 -15 -60 -9 0 -35 -19 -58 -43 -102 -101
-85 -265 35 -344 36 -24 51 -28 118 -28 67 0 82 4 118 28 23 15 54 46 69 69
24 36 28 51 28 118 0 67 -4 82 -28 118 -15 23 -45 54 -67 68 -38 26 -40 29
-40 80 l0 54 -80 0 -80 0 0 -60z m122 -217 c22 -20 23 -61 1 -85 -34 -38 -103
-11 -103 40 0 54 62 81 102 45z"/>
</g>
</svg>
